<svg xmlns="http://www.w3.org/2000/svg" width="1600" height="900" viewBox="0 0 1600 900"><defs><style>.cls-1,.cls-5{fill:#8bcde4;}.cls-2{fill:#7fc8e1;}.cls-2,.cls-4{stroke:#7fc8e1;}.cls-10,.cls-11,.cls-12,.cls-2,.cls-3,.cls-4,.cls-5,.cls-6,.cls-7,.cls-8,.cls-9{stroke-linecap:round;stroke-linejoin:round;}.cls-10,.cls-11,.cls-12,.cls-2,.cls-3,.cls-4,.cls-5,.cls-6,.cls-9{stroke-width:10px;}.cls-3{fill:#1c212d;stroke:#1c212d;}.cls-10,.cls-4{fill:#f0f0f1;}.cls-5{stroke:#8bcde4;}.cls-6{fill:#a09f9f;stroke:#a09f9f;}.cls-7{fill:#fff;stroke:#fff;stroke-width:5px;}.cls-8{fill:#564b1a;stroke:#564b1a;stroke-width:13px;}.cls-9{fill:#edcb30;stroke:#edcb30;}.cls-10{stroke:#f0f0f1;}.cls-11{fill:#f2842a;stroke:#f2842a;}.cls-12{fill:#fe9028;stroke:#fe9028;}</style></defs><title>badeværelse</title><g id="baggrund"><rect class="cls-1" x="0.5" y="0.5" width="1599" height="899"/><path class="cls-1" d="M1599,1V899H1V1H1599m1-1H0V900H1600V0Z"/></g><g id="Layer_3" data-name="Layer 3"><rect class="cls-2" x="119" y="16" width="100" height="100"/><rect class="cls-2" x="250" y="16" width="100" height="100"/><rect class="cls-2" x="380" y="16" width="100" height="100"/><rect class="cls-2" x="508" y="16" width="100" height="100"/><rect class="cls-2" x="636" y="16" width="100" height="100"/><rect class="cls-2" x="764" y="16" width="100" height="100"/><rect class="cls-2" x="892" y="16" width="100" height="100"/><rect class="cls-2" x="1020" y="16" width="100" height="100"/><rect class="cls-2" x="1149" y="16" width="100" height="100"/><rect class="cls-2" x="1277" y="16" width="100" height="100"/><rect class="cls-2" x="1403" y="16" width="100" height="100"/><rect class="cls-2" x="1532" y="16" width="100" height="100"/><rect class="cls-2" x="1532" y="146" width="100" height="100"/><rect class="cls-3" x="1532" y="276" width="100" height="100"/><rect class="cls-4" x="1532" y="406" width="100" height="100"/><rect class="cls-2" x="1532" y="536" width="100" height="100"/><rect class="cls-2" x="1532" y="666" width="100" height="100"/><rect class="cls-2" x="1532" y="796" width="100" height="100"/><rect class="cls-2" x="1403" y="146" width="100" height="100"/><rect class="cls-3" x="1403" y="276" width="100" height="100"/><rect class="cls-4" x="1403" y="406" width="100" height="100"/><rect class="cls-2" x="1403" y="536" width="100" height="100"/><rect class="cls-2" x="1403" y="666" width="100" height="100"/><rect class="cls-2" x="1403" y="796" width="100" height="100"/><rect class="cls-2" x="1277" y="146" width="100" height="100"/><rect class="cls-3" x="1277" y="276" width="100" height="100"/><rect class="cls-4" x="1277" y="406" width="100" height="100"/><rect class="cls-2" x="1277" y="536" width="100" height="100"/><rect class="cls-2" x="1277" y="666" width="100" height="100"/><rect class="cls-2" x="1277" y="796" width="100" height="100"/><rect class="cls-2" x="1149" y="146" width="100" height="100"/><rect class="cls-3" x="1149" y="276" width="100" height="100"/><rect class="cls-4" x="1149" y="406" width="100" height="100"/><rect class="cls-2" x="1149" y="536" width="100" height="100"/><rect class="cls-2" x="1149" y="666" width="100" height="100"/><rect class="cls-2" x="1149" y="796" width="100" height="100"/><rect class="cls-2" x="1020" y="146" width="100" height="100"/><rect class="cls-3" x="1020" y="276" width="100" height="100"/><rect class="cls-4" x="1020" y="406" width="100" height="100"/><rect class="cls-2" x="1020" y="536" width="100" height="100"/><rect class="cls-2" x="1020" y="666" width="100" height="100"/><rect class="cls-2" x="1020" y="796" width="100" height="100"/><rect class="cls-2" x="892" y="146" width="100" height="100"/><rect class="cls-3" x="892" y="276" width="100" height="100"/><rect class="cls-4" x="892" y="406" width="100" height="100"/><rect class="cls-2" x="892" y="536" width="100" height="100"/><rect class="cls-2" x="892" y="666" width="100" height="100"/><rect class="cls-2" x="892" y="796" width="100" height="100"/><rect class="cls-2" x="764" y="146" width="100" height="100"/><rect class="cls-3" x="764" y="276" width="100" height="100"/><rect class="cls-4" x="764" y="406" width="100" height="100"/><rect class="cls-2" x="764" y="536" width="100" height="100"/><rect class="cls-2" x="764" y="666" width="100" height="100"/><rect class="cls-2" x="764" y="796" width="100" height="100"/><rect class="cls-2" x="636" y="146" width="100" height="100"/><rect class="cls-3" x="636" y="276" width="100" height="100"/><rect class="cls-4" x="636" y="406" width="100" height="100"/><rect class="cls-2" x="636" y="536" width="100" height="100"/><rect class="cls-2" x="636" y="666" width="100" height="100"/><rect class="cls-2" x="636" y="796" width="100" height="100"/><rect class="cls-2" x="508" y="146" width="100" height="100"/><rect class="cls-3" x="508" y="276" width="100" height="100"/><rect class="cls-4" x="508" y="406" width="100" height="100"/><rect class="cls-2" x="508" y="536" width="100" height="100"/><rect class="cls-2" x="508" y="666" width="100" height="100"/><rect class="cls-2" x="508" y="796" width="100" height="100"/><rect class="cls-2" x="380" y="146" width="100" height="100"/><rect class="cls-3" x="380" y="276" width="100" height="100"/><rect class="cls-4" x="380" y="406" width="100" height="100"/><rect class="cls-2" x="380" y="536" width="100" height="100"/><rect class="cls-2" x="380" y="666" width="100" height="100"/><rect class="cls-2" x="380" y="796" width="100" height="100"/><rect class="cls-2" x="250" y="146" width="100" height="100"/><rect class="cls-3" x="250" y="276" width="100" height="100"/><rect class="cls-4" x="250" y="406" width="100" height="100"/><rect class="cls-2" x="250" y="536" width="100" height="100"/><rect class="cls-2" x="250" y="666" width="100" height="100"/><rect class="cls-2" x="250" y="796" width="100" height="100"/><rect class="cls-2" x="119" y="146" width="100" height="100"/><rect class="cls-3" x="119" y="276" width="100" height="100"/><rect class="cls-4" x="119" y="406" width="100" height="100"/><rect class="cls-2" x="119" y="536" width="100" height="100"/><rect class="cls-2" x="119" y="666" width="100" height="100"/><rect class="cls-2" x="119" y="796" width="100" height="100"/><rect class="cls-2" x="-14" y="146" width="100" height="100"/><rect class="cls-3" x="-14" y="276" width="100" height="100"/><rect class="cls-4" x="-14" y="406" width="100" height="100"/><rect class="cls-2" x="-14" y="536" width="100" height="100"/><rect class="cls-2" x="-14" y="666" width="100" height="100"/><rect class="cls-2" x="-14" y="796" width="100" height="100"/><rect class="cls-2" x="-14" y="16" width="100" height="100"/></g><g id="Layer_4" data-name="Layer 4"><ellipse class="cls-4" cx="1120" cy="297" rx="173" ry="261"/><ellipse class="cls-2" cx="1120.07" cy="297.25" rx="155.93" ry="235.25"/><polygon class="cls-5" points="965.84 332 1238.48 450.29 1258.36 406 964 297 965.84 332"/><polygon class="cls-5" points="970 266.41 1267.75 373.65 1276 297 970.14 232 970 266.41"/></g><g id="Layer_8" data-name="Layer 8"><polygon class="cls-6" points="1159 598 1239 620 1239 662 1199 662 1199 630 1168 630 1159 598"/></g><g id="Layer_11" data-name="Layer 11"><rect class="cls-7" x="907.08" y="535.27" width="23" height="33" transform="translate(-136.8 366.27) rotate(-21.02)"/></g><g id="Layer_10" data-name="Layer 10"><line class="cls-8" x1="964.58" y1="638.01" x2="924.04" y2="532.53"/></g><g id="Layer_9" data-name="Layer 9"><polygon class="cls-9" points="936 581 951 663 1006 663 1023 581 936 581"/></g><g id="Layer_5" data-name="Layer 5"><rect class="cls-10" x="870" y="666" width="500" height="31"/><path class="cls-10" d="M892,701h456s-34,125-237,130C1111,831,931,823,892,701Z"/><polygon class="cls-10" points="1049.26 821.39 1191.76 821.39 1199 896 1041 896 1049.26 821.39"/></g><g id="Layer_6" data-name="Layer 6"><path class="cls-11" d="M522.91,401.14s32.3,0,31.29,38.14l4.89,243.47H492.46l.13-221S486.72,418.74,522.91,401.14Z"/><path class="cls-12" d="M321.27,716V461.77s-2-70.41,53.78-59.65l146.7-1s-35.21,11.73-31.3,60.63l1,254.23Z"/></g><g id="Layer_7" data-name="Layer 7"><polygon class="cls-6" points="505.84 436.98 581.49 436.98 596.27 460.02 581.49 460.02 564.94 448.8 505.84 448.2 505.84 436.98"/><polygon class="cls-6" points="311.36 437.05 269.68 437.05 250 460.2 270.84 460.2 290.52 448.62 311.36 448.62 311.36 437.05"/></g></svg>
