<?xml version="1.0" encoding="utf-8"?>
<!-- Generator: Adobe Illustrator 22.0.1, SVG Export Plug-In . SVG Version: 6.00 Build 0)  -->
<svg version="1.1" id="Layer_1" xmlns="http://www.w3.org/2000/svg" xmlns:xlink="http://www.w3.org/1999/xlink" x="0px" y="0px"
	 viewBox="0 0 1600 900" style="enable-background:new 0 0 1600 900;" xml:space="preserve">
<style type="text/css">
	.st0{fill:#17536E;}
	.st1{fill:#212139;}
	.st2{fill:#FFE3BF;}
	.st3{fill:#FFFFFF;}
	.st4{fill:#FFCFB4;}
	.st5{fill:#FFB894;}
</style>
<g id="blå">
	<path class="st0" d="M677,139.8c1.9-10.2,6.6-18.4,15-24h211c11,4.6,17.1,13.7,22,24l1,487c-1.6,12.5-8.5,22.6-21,30H703
		c-12.9-5.9-22.1-13.4-26-23v-489"/>
	<polygon class="st0" points="677,302.7 672,302.8 672,285.8 677,285.8 	"/>
	<polygon class="st0" points="677,256.6 672,256.8 672,238.8 676,238.8 	"/>
	<polygon class="st0" points="672,238.8 678,238.8 678,253.8 677,256.8 	"/>

		<image style="overflow:visible;enable-background:new    ;" width="285" height="463" xlink:href="A547548B844BA7D.png"  transform="matrix(0.9965 0 0 0.9965 658 153.0623)">
	</image>

		<rect x="692" y="182.8" transform="matrix(0.9999 -1.274080e-02 1.274080e-02 0.9999 -4.8032 10.2276)" class="st1" width="216.7" height="398.6"/>
	<polygon class="st2" points="781.2,356.4 759.3,357.6 759.6,334 781.5,332.8 	"/>
	<polygon class="st2" points="858.9,296.6 837,297.8 837.3,274.3 859.1,273 	"/>
	<polygon class="st3" points="725.3,359.5 703.5,360.7 703.8,337.1 725.6,335.9 	"/>
	<polygon class="st4" points="753.3,330.2 731.5,331.4 731.8,307.9 753.5,306.6 	"/>
	<polygon class="st2" points="752.9,358 731.1,359.2 731.3,335.6 753.3,334.4 	"/>
	<polygon class="st4" points="781.5,328.6 759.7,329.9 759.9,306.3 781.8,305.1 	"/>
	<polygon class="st3" points="726.3,276.3 704.5,277.5 704.8,253.9 726.5,252.7 	"/>
	<polygon class="st3" points="725.9,304 704.1,305.2 704.5,281.7 726.3,280.4 	"/>
	<polygon class="st2" points="752.6,385.7 730.8,386.9 731,363.3 752.9,362.1 	"/>
	<polygon class="st4" points="725.6,331.8 703.8,333 704.1,309.4 725.9,308.2 	"/>
	<polygon class="st4" points="781.8,300.9 760,302.1 760.2,278.5 782.1,277.3 	"/>
	<polygon class="st3" points="753.9,274.7 732,276 732.3,252.4 754.1,251.2 	"/>
	<polygon class="st4" points="753.6,302.5 731.8,303.7 732,280.1 753.8,278.9 	"/>
	<polygon class="st4" points="807.2,271.8 785.3,273 785.6,249.4 807.5,248.2 	"/>
	<polygon class="st5" points="806.9,299.5 785,300.7 785.3,277.2 807.1,275.9 	"/>
	<polygon class="st3" points="782.1,273.2 760.3,274.4 760.6,250.8 782.5,249.6 	"/>
	<polygon class="st2" points="752.3,413.4 730.5,414.6 730.8,391.1 752.5,389.8 	"/>
	<polygon class="st4" points="833.2,298 811.3,299.3 811.6,275.7 833.5,274.5 	"/>
	<polygon class="st5" points="832.9,325.8 811,327 811.3,303.4 833.1,302.2 	"/>
	<polygon class="st3" points="725,387.2 703.1,388.4 703.5,364.9 725.3,363.6 	"/>
	<polygon class="st5" points="806.2,355 784.5,356.2 784.6,332.6 806.5,331.4 	"/>
	<polygon class="st5" points="832.5,353.5 810.7,354.7 811,331.2 832.8,329.9 	"/>
	<polygon class="st5" points="805.9,382.7 784.1,383.9 784.3,360.4 806.2,359.1 	"/>
	<polygon class="st3" points="724.6,415 702.8,416.2 703.1,392.6 724.9,391.4 	"/>
	<polygon class="st4" points="778.9,384.2 757.1,385.4 757.5,361.9 779.2,360.6 	"/>
	<polygon class="st4" points="858.5,324.4 836.7,325.6 837,302 858.8,300.8 	"/>
	<polygon class="st4" points="833.5,270.3 811.7,271.5 811.9,247.9 833.8,246.7 	"/>
	<polygon class="st3" points="726.6,248.5 704.8,249.8 705,226.2 726.9,225 	"/>
	<polygon class="st3" points="732.5,246.9 730.8,225.1 754.3,224.8 756.1,246.5 	"/>
	<polygon class="st3" points="780.5,245.5 758.7,246.8 759,223.2 780.8,222 	"/>
	<polygon class="st3" points="807.5,244 785.7,245.3 785.9,221.7 807.8,220.5 	"/>
	<polygon class="st3" points="832.5,243.1 810.7,243.8 811.5,220.2 833.2,219.5 	"/>
	<polygon class="st3" points="858.5,242.3 836.5,243 837.3,219.4 859.1,218.7 	"/>
	<polygon class="st3" points="724.3,442.7 702.5,443.9 702.8,420.3 724.6,419.1 	"/>
	<polygon class="st3" points="724,470.4 702.3,471.6 702.5,448.1 724.3,446.9 	"/>
	<polygon class="st5" points="832.2,381.3 810.5,382.5 810.7,358.9 832.5,357.7 	"/>
	<polygon class="st4" points="883.5,295.2 861.6,296.4 861.9,272.8 883.7,271.6 	"/>
	<polygon class="st2" points="778.6,412 756.8,413.2 757,389.6 778.9,388.4 	"/>
	<polygon class="st2" points="751.9,441.2 730.1,442.4 730.5,418.8 752.3,417.6 	"/>
	<polygon class="st5" points="806.5,327.2 784.7,328.5 785,304.9 806.8,303.7 	"/>
	<polygon class="st5" points="805.6,410.5 783.7,411.7 784,388.1 805.8,386.9 	"/>
	<polygon class="st3" points="723.8,498.2 701.8,499.4 702.1,475.8 724,474.6 	"/>
	<polygon class="st3" points="909.3,239.2 887.6,240 888.2,216.4 910.1,215.6 	"/>
	<polygon class="st5" points="831.9,409 810.1,410.2 810.3,386.6 832.2,385.4 	"/>
	<polygon class="st4" points="857.6,406.9 835.8,408.1 836,384.5 857.9,383.3 	"/>
	<polygon class="st4" points="857.9,379.8 836.1,381 836.3,357.5 858.2,356.2 	"/>
	<polygon class="st4" points="858.2,352.1 836.5,353.3 836.7,329.7 858.5,328.5 	"/>
	<polygon class="st4" points="859.2,268.9 837.5,270.1 837.6,246.5 859.5,245.3 	"/>
	<polygon class="st4" points="884.1,268.3 862.2,269.5 862.5,246 884.3,244.7 	"/>
	<polygon class="st2" points="778.3,439.7 756.5,440.9 756.7,417.3 778.5,416.1 	"/>
	<polygon class="st2" points="909.6,293.8 887.8,295 888.1,271.4 909.9,270.2 	"/>
	<polygon class="st2" points="908.6,267 886.7,267.7 887.5,244.1 909.2,243.4 	"/>
	<polygon class="st3" points="883.8,241.4 862,242.1 862.7,218.5 884.6,217.8 	"/>
	<polygon class="st3" points="909.3,321.5 887.5,322.7 887.7,299.2 909.6,298 	"/>
	<polygon class="st3" points="909.1,349.3 887.1,350.5 887.5,326.9 909.2,325.7 	"/>
	<polygon class="st3" points="908.6,377 886.8,378.2 887.1,354.6 908.9,353.4 	"/>
	<polygon class="st3" points="908.3,404.7 886.6,406 886.8,382.4 908.6,381.2 	"/>
	<polygon class="st3" points="908.1,432.5 886.2,433.7 886.5,410.1 908.3,408.9 	"/>
	<polygon class="st3" points="907.7,460.2 885.8,461.4 886.1,437.8 907.9,436.6 	"/>
	<polygon class="st3" points="907.3,487.9 885.6,489.2 885.8,465.6 907.6,464.4 	"/>
	<polygon class="st3" points="907.1,515.7 885.2,516.9 885.6,493.3 907.3,492.1 	"/>
	<polygon class="st3" points="723.5,525.9 701.5,527.1 701.8,503.5 723.6,502.3 	"/>
	<polygon class="st3" points="719.9,552 698.1,552.7 698.8,529.1 720.6,528.4 	"/>
	<polygon class="st3" points="747.5,551 725.8,551.8 726.5,528.2 748.3,527.4 	"/>
	<polygon class="st3" points="777,550.6 755.1,551.9 755.5,528.3 777.3,527.1 	"/>
	<polygon class="st3" points="803.9,549.1 782.1,550.4 782.5,526.8 804.2,525.6 	"/>
	<polygon class="st3" points="830.3,547.7 808.5,548.9 808.7,525.3 830.6,524.1 	"/>
	<polygon class="st3" points="856,546.2 834.1,547.5 834.5,523.9 856.2,522.7 	"/>
	<polygon class="st3" points="881.7,544.8 859.8,546 860.1,522.5 881.9,521.2 	"/>
	<polygon class="st3" points="906.7,543.4 884.9,544.6 885.1,521.1 907.1,519.8 	"/>
	<polygon class="st4" points="751,524.4 729.1,525.6 729.5,502 751.3,500.8 	"/>
	<polygon class="st4" points="882,517.1 860.1,518.3 860.5,494.7 882.3,493.5 	"/>
	<polygon class="st5" points="805.2,438.2 783.5,439.4 783.7,415.8 805.5,414.6 	"/>
	<polygon class="st5" points="804.9,465.9 783.1,467.1 783.5,443.6 805.2,442.4 	"/>
	<polygon class="st4" points="777.9,467.4 756.1,468.6 756.5,445.1 778.2,443.9 	"/>
	<polygon class="st4" points="881.7,323.1 859.8,324.3 860.1,300.7 881.9,299.5 	"/>
	<polygon class="st4" points="883.9,350.7 862.1,351.9 862.5,328.3 884.2,327.1 	"/>
	<polygon class="st2" points="751.6,468.9 729.8,470.1 730.1,446.5 751.9,445.3 	"/>
	<polygon class="st4" points="751.3,496.6 729.5,497.8 729.8,474.3 751.6,473.1 	"/>
	<polygon class="st4" points="883.6,379.1 861.7,380.3 862,356.7 883.9,355.5 	"/>
	<polygon class="st4" points="777.3,522.9 755.5,524.1 755.8,500.5 777.6,499.3 	"/>
	<polygon class="st5" points="830.3,436.8 808.5,438 808.7,414.4 830.6,413.2 	"/>
	<polygon class="st5" points="777.6,495.2 755.8,496.4 756.1,472.8 777.9,471.6 	"/>
	<polygon class="st5" points="829.3,464.6 807.5,465.8 807.8,442.2 829.6,441 	"/>
	<polygon class="st5" points="804.6,493.7 782.8,494.9 783,471.3 804.9,470.1 	"/>
	<polygon class="st5" points="856.6,433.9 834.8,435.2 835.1,411.6 856.9,410.4 	"/>
	<polygon class="st5" points="856.3,463.1 834.5,464.3 834.7,440.7 856.6,439.5 	"/>
	<polygon class="st5" points="803,521.5 781.2,522.7 781.5,499.1 803.3,497.9 	"/>
	<polygon class="st5" points="829,492.3 807.2,493.5 807.5,469.9 829.3,468.7 	"/>
	<polygon class="st5" points="828.7,520 806.8,521.3 807.1,497.7 828.9,496.5 	"/>
	<polygon class="st4" points="880.7,407.7 858.8,408.9 859.1,385.3 881,384.1 	"/>
	<polygon class="st4" points="855,518.6 833.2,519.8 833.5,496.2 855.3,495 	"/>
	<polygon class="st4" points="882.3,489.3 860.5,490.6 860.7,467 882.6,465.8 	"/>
	<polygon class="st4" points="880.5,432.6 858.6,433.8 858.8,410.3 880.7,409 	"/>
	<polygon class="st5" points="855.3,490.1 833.5,491.4 833.8,467.8 855.6,466.6 	"/>
	<polygon class="st2" points="880.1,461.7 858.2,463 858.5,439.4 880.3,438.2 	"/>
	<polygon class="st3" points="725.6,218 703.8,218.7 704.5,195.1 726.3,194.4 	"/>
	<polygon class="st3" points="754.5,218.4 732.8,219.1 733.5,195.5 755.3,194.8 	"/>
	<polygon class="st3" points="779.7,217.6 757.9,218.4 758.6,194.8 780.5,194 	"/>
	<polygon class="st3" points="806.3,216.7 784.5,217.4 785.2,193.8 807,193.1 	"/>
	<polygon class="st3" points="832.9,215.7 811.1,216.5 811.8,192.9 833.6,192.1 	"/>
	<polygon class="st3" points="858,215 836.2,215.7 837,192.1 858.8,191.4 	"/>
	<polygon class="st3" points="884.5,214.7 862.6,215.4 863.3,191.8 885.1,191.1 	"/>
	<polygon class="st3" points="909.2,213.1 887.5,213.9 888.1,190.3 909.9,189.5 	"/>
</g>
</svg>
