<svg xmlns="http://www.w3.org/2000/svg" xmlns:xlink="http://www.w3.org/1999/xlink" viewBox="0 0 1600 900"><defs><style>.cls-1,.cls-12,.cls-4,.cls-5,.cls-6{fill:#ffc5b4;}.cls-13,.cls-14,.cls-15,.cls-2{fill:none;}.cls-3{opacity:0.89;}.cls-15,.cls-4,.cls-5{stroke:#ffb0b4;}.cls-12,.cls-13,.cls-14,.cls-15,.cls-4,.cls-5,.cls-6{stroke-miterlimit:10;}.cls-4{stroke-width:2px;}.cls-6{stroke:#ffc5c6;}.cls-7{fill:#212139;}.cls-8{fill:#ffe3bf;}.cls-9{fill:#fff;}.cls-10{fill:#ffcfb4;}.cls-11{fill:#ffb894;}.cls-12{stroke:#ffc5b4;}.cls-13{stroke:#ffaab4;}.cls-14{stroke:#ffaeb4;}.cls-16{fill:url(#radial-gradient);}.cls-17{fill:#ff005d;}</style><radialGradient id="radial-gradient" cx="1584.85" cy="841.17" r="31.49" gradientTransform="matrix(0.97, -0.26, 0.26, 0.97, -361.88, 363.13)" gradientUnits="userSpaceOnUse"><stop offset="0.21" stop-color="#f4f408"/><stop offset="0.22" stop-color="#f4f209"/><stop offset="0.37" stop-color="#f8d010"/><stop offset="0.52" stop-color="#fbb516"/><stop offset="0.67" stop-color="#fda21b"/><stop offset="0.83" stop-color="#ff971d"/><stop offset="1" stop-color="#ff931e"/></radialGradient></defs><title>figur_done</title><g id="Layer_2" data-name="Layer 2"><path d="M616,621.81c-.86-.38-3.62-5-4-5.61a24.15,24.15,0,0,1-3.67-8.6l-2.74,1.15,3.5,7.71,2.59-1.51-5.36-10a1.51,1.51,0,0,0-2.75,1.16c3.17,11.07,8.79,20.35,15.75,29.42,1.16,1.51,3.77,0,2.59-1.51-6.8-8.88-12.34-17.85-15.44-28.71l-2.74,1.16,5.36,10c.93,1.73,3.37.21,2.59-1.51l-3.5-7.71c-.73-1.61-3.1-.43-2.74,1.15a27.84,27.84,0,0,0,4.47,10c1.33,1.94,2.34,5,4.61,6,1.75.76,3.28-1.82,1.51-2.59Z"/><path d="M612.44,622.28a5.41,5.41,0,0,0,1.6,4.11c1.37,1.36,3.5-.76,2.12-2.12a2.4,2.4,0,0,1-.72-2,1.51,1.51,0,0,0-1.5-1.5,1.53,1.53,0,0,0-1.5,1.5Z"/><path d="M607.66,604.78c-3.63-8.33-8.81-15.46-11.15-24.32l-2.74,1.15c2.31,4.72,3.9,9.42,5.76,14.28,1.69,4.44,4.38,8.11,5.56,12.84l2.51-1.46c-2.4-2-3.7-6.12-5.1-8.9a104.24,104.24,0,0,1-4.64-11.27l-2.74,1.15c2,2.57,1.75,6.12,3.12,9,1.63,3.45,3.77,6.7,5.66,10a1.5,1.5,0,0,0,2.59-1.52c-1.88-3.28-4.11-6.55-5.66-10-1.34-3-1.08-6.36-3.12-9-.93-1.21-3.38-.6-2.75,1.16a111.77,111.77,0,0,0,4.95,12c1.52,3,2.94,7.29,5.57,9.51a1.51,1.51,0,0,0,2.5-1.46c-1.31-5.28-4.5-9.44-6.09-14.53a91,91,0,0,0-5.53-13.3c-.76-1.56-3.16-.45-2.74,1.16,2.41,9.13,7.7,16.44,11.45,25,.77,1.77,3.35.24,2.59-1.51Z"/><path d="M603.29,595c-9.72-25.29-19.47-50.58-30.29-75.42-.68-1.56-3.27-.45-2.74,1.15q15.4,46.68,34.75,91.9c.75,1.77,3.34.25,2.59-1.51q-19.15-44.83-34.45-91.19l-2.74,1.16c10.71,24.61,20.36,49.66,30,74.71.69,1.78,3.59,1,2.89-.8Z"/><path d="M573.6,521.3l-.49-2.3a1.51,1.51,0,0,0-2.89,0l1.2-2-.7-1.74a28.2,28.2,0,0,0-1.76-4.36l-3.16-7.85-2.74,1.16c6.84,13.75,11.23,28.7,16.28,43.17.63,1.81,3.53,1,2.89-.79-5.14-14.73-9.61-29.9-16.58-43.89-.74-1.5-3.38-.44-2.74,1.15,2.12,5.28,3.71,12.54,7.22,17a1.49,1.49,0,0,0,1.46.38l.41-.1a1.49,1.49,0,0,0,1-1.05l.07-.36h-2.89l.49,2.31c.4,1.89,3.29,1.09,2.89-.8Z"/><path class="cls-1" d="M974.27,681.62l29.79,80.26c44.44-10.51,114.87-54.37,127.42-68.67,18.92-21.56-10.75-44.69-38.89-42.2S1008.82,654.37,974.27,681.62Z"/><path class="cls-1" d="M924.06,549.6l19.88,74.69c38.71-6.61,101.94-41.74,113.65-53.89,17.66-18.3-6.08-41.2-30.29-40.79S955.48,527.17,924.06,549.6Z"/><path class="cls-2" d="M510.89,256.31c-4.27,1.48,9,39.54,13.24,38.06"/><path class="cls-2" d="M779.81,191.76c0,21,5.93,38.07,13.24,38.07"/><path class="cls-2" d="M793.05,229.83c0-21-17.76-38.07-39.71-38.07"/><path class="cls-3" d="M478.94,299.57c-3.07-13.74-1.54-26.5,6-38l263.6-112.12c16.12-.14,28.67,7.95,40.23,18.29l260,607.87c4.64,16.53,1.34,32.75-10.3,48.64L786.15,931.63c-19.3-.54-34.71-5-44.71-14.92L481.6,305.81"/><polygon points="563.51 503.08 557.31 505.86 548.28 484.62 554.52 481.96 563.51 503.08"/><polygon points="538.98 445.42 532.87 448.39 523.3 425.9 528.3 423.78 538.98 445.42"/><polygon points="523.3 425.9 530.8 422.71 538.77 441.45 539.11 445.73 523.3 425.9"/><path class="cls-1" d="M462.9,910c-1.84-20.6-.31-107.36,20.68-129.91-3.53-43.77-2.19-85.27,6.62-123.29-14.18-36.47-25.05-73.43-27.3-111.71l2.52-3.79h0c1.7-2.56,26.54-43.14,41-61.7a186.23,186.23,0,0,1,33.41-33l34.75,85.23c23.07,71,37,93.52,43.68,101.87.61.74,6.24,7.69,13.42,16.46,12.91,15.75,19.16,22.69,21.56,26.12a222.39,222.39,0,0,1,26.43,50.83c2.48,21.18,17.47,36.92,35.58,51.3,12.09-7.13,93.5-50.16,138.19-48,24.67-3.25,46.51,3.33,64.54,23.17,11.57,38.79,20.57,76.75,0,105.09v19.86c.65-8.81,152.36-65.72,187-57.1,12.71,8.61,23,20,11.58,57.1-19.2,29.58-21.51,31.44-29.79,31.44Z"/><path class="cls-4" d="M652.39,858.7a227.08,227.08,0,0,1,33.92-48c17.27-18.69,30-26.11,28.13-31.44-1.8-5.06-16.7-7.92-78.6,4.14"/><path class="cls-1" d="M739.27,847.94,678,804.09"/><path class="cls-4" d="M617.63,641.9A70,70,0,0,1,587,638.59a71.13,71.13,0,0,1-33.1-24"/><path class="cls-5" d="M887.38,766a94.34,94.34,0,0,1,19.45,34.34,95.38,95.38,0,0,1,1.24,51.72"/><path class="cls-5" d="M850.56,773.88a85.84,85.84,0,0,1,43,79.44"/><path class="cls-4" d="M914.28,857.46c-7.93,9.19-29.37,31.39-58.75,31.44a58.74,58.74,0,0,1-9.93-.83"/><path class="cls-4" d="M623.42,651.83a40.88,40.88,0,0,1-51.3,14.07"/><path class="cls-6" d="M952.75,555.85a91.6,91.6,0,0,0,20.69,41.37"/><path class="cls-5" d="M978.82,545.5A56,56,0,0,0,1007,586.05"/><path class="cls-5" d="M1031.78,677.07c.56,5.06,2.86,19.61,14.89,31.44a50,50,0,0,0,16.55,10.76"/><path class="cls-5" d="M1026,678.73a46.48,46.48,0,0,0,9.93,28.13,45.13,45.13,0,0,0,15.72,12.41"/><path class="cls-5" d="M1025.16,855A80.87,80.87,0,0,0,1069,900.48"/><path class="cls-5" d="M1014.4,858.28A75.59,75.59,0,0,0,1058.25,903"/><path class="cls-5" d="M469.52,548.4a34.46,34.46,0,0,0,18.2,6.62,34.91,34.91,0,0,0,22.34-6.62"/><g id="Layer_4" data-name="Layer 4"><rect class="cls-7" x="618.61" y="266.09" width="253.06" height="465.62" transform="translate(-137.37 339.79) rotate(-23.58)"/><polygon class="cls-8" points="708.46 480.02 685.23 491.39 674.73 465.55 697.97 454.18 708.46 480.02"/><polygon class="cls-8" points="765.75 379.29 742.52 390.66 731.91 364.87 755.14 353.5 765.75 379.29"/><polygon class="cls-9" points="649.09 509 625.86 520.37 615.41 494.64 638.53 483.31 649.09 509"/><polygon class="cls-10" points="666.06 464.34 642.83 475.71 632.33 449.87 655.57 438.5 666.06 464.34"/><polygon class="cls-8" points="678.44 494.65 655.21 506.02 644.76 480.29 667.88 468.97 678.44 494.65"/><polygon class="cls-10" points="696.08 449.71 672.96 461.04 662.35 435.24 685.59 423.87 696.08 449.71"/><polygon class="cls-9" points="611.9 417.95 588.67 429.32 578.22 403.6 601.45 392.22 611.9 417.95"/><polygon class="cls-9" points="624.33 448.37 601.1 459.75 590.6 433.9 613.83 422.53 624.33 448.37"/><polygon class="cls-8" points="690.87 525.07 667.63 536.45 657.14 510.6 680.26 499.28 690.87 525.07"/><polygon class="cls-10" points="636.71 478.69 613.48 490.06 602.98 464.22 626.1 452.89 636.71 478.69"/><polygon class="cls-10" points="683.7 419.4 660.53 430.62 649.97 404.93 673.21 393.56 683.7 419.4"/><polygon class="cls-9" points="641.3 403.72 618.02 414.98 607.57 389.25 630.8 377.88 641.3 403.72"/><polygon class="cls-10" points="653.68 434.03 630.45 445.4 619.95 419.56 643.18 408.19 653.68 434.03"/><polygon class="cls-10" points="698.04 375.99 674.76 387.25 664.31 361.52 687.43 350.19 698.04 375.99"/><polygon class="cls-11" points="710.42 406.3 687.18 417.67 676.58 391.88 699.81 380.5 710.42 406.3"/><polygon class="cls-9" points="671.39 388.93 648.15 400.3 637.54 374.51 660.78 363.14 671.39 388.93"/><polygon class="cls-8" points="703.14 555.43 680.02 566.76 669.41 540.96 692.64 529.59 703.14 555.43"/><polygon class="cls-10" points="738.36 392.68 715.08 403.94 704.63 378.21 727.87 366.84 738.36 392.68"/><polygon class="cls-11" points="750.75 422.99 727.51 434.36 717.01 408.52 740.25 397.15 750.75 422.99"/><polygon class="cls-9" points="661.41 539.47 638.28 550.79 627.67 525 650.91 513.62 661.41 539.47"/><polygon class="cls-11" points="735.12 467.08 711.83 478.34 701.38 452.61 724.62 441.24 735.12 467.08"/><polygon class="cls-11" points="763.13 453.3 739.89 464.67 729.39 438.83 752.63 427.46 763.13 453.3"/><polygon class="cls-11" points="747.5 497.39 724.26 508.76 713.76 482.92 737 471.55 747.5 497.39"/><polygon class="cls-9" points="673.79 569.77 650.66 581.1 640.06 555.31 663.29 543.93 673.79 569.77"/><polygon class="cls-10" points="718.82 511.45 695.53 522.71 685.08 496.98 708.32 485.61 718.82 511.45"/><polygon class="cls-10" points="778.02 409.65 754.9 420.98 744.29 395.18 767.52 383.81 778.02 409.65"/><polygon class="cls-10" points="725.94 362.25 702.7 373.63 692.2 347.79 715.49 336.52 725.94 362.25"/><polygon class="cls-9" points="599.52 387.64 576.29 399.01 565.79 373.17 589.02 361.8 599.52 387.64"/><polygon class="cls-9" points="605.25 383.12 593.36 360.23 618.76 349 630.81 371.95 605.25 383.12"/><polygon class="cls-9" points="656.93 359.63 633.69 371 623.2 345.16 646.43 333.79 656.93 359.63"/><polygon class="cls-9" points="685.61 345.56 662.38 356.94 651.88 331.1 675.16 319.84 685.61 345.56"/><polygon class="cls-9" points="712.34 333.12 688.98 343.88 678.93 317.85 702.29 307.09 712.34 333.12"/><polygon class="cls-9" points="740.23 320.31 716.76 331.12 706.71 305.09 730.18 294.28 740.23 320.31"/><polygon class="cls-9" points="686.17 600.09 662.93 611.46 652.44 585.62 675.72 574.36 686.17 600.09"/><polygon class="cls-9" points="698.6 630.51 675.36 641.88 664.87 616.04 688.1 604.67 698.6 630.51"/><polygon class="cls-11" points="775.55 483.72 752.27 494.98 741.82 469.25 764.95 457.93 775.55 483.72"/><polygon class="cls-10" points="791.8 366.47 768.51 377.73 758.07 352 781.19 340.68 791.8 366.47"/><polygon class="cls-8" points="731.2 541.76 707.96 553.13 697.47 527.29 720.7 515.92 731.2 541.76"/><polygon class="cls-8" points="715.52 585.74 692.4 597.07 681.79 571.27 705.07 560.01 715.52 585.74"/><polygon class="cls-11" points="722.69 436.66 699.57 447.98 688.96 422.19 712.19 410.81 722.69 436.66"/><polygon class="cls-11" points="759.88 527.7 736.64 539.07 726.15 513.23 749.38 501.86 759.88 527.7"/><polygon class="cls-9" points="710.98 660.82 687.74 672.19 677.25 646.35 700.48 634.98 710.98 660.82"/><polygon class="cls-9" points="794.29 293.7 770.93 304.47 760.88 278.44 784.24 267.68 794.29 293.7"/><polygon class="cls-11" points="787.93 514.03 764.7 525.4 754.09 499.61 777.33 488.24 787.93 514.03"/><polygon class="cls-10" points="814.88 499.91 791.64 511.28 781.15 485.44 804.38 474.07 814.88 499.91"/><polygon class="cls-10" points="802.83 470.38 779.55 481.64 769.1 455.91 792.33 444.54 802.83 470.38"/><polygon class="cls-10" points="790.4 439.96 767.17 451.33 756.67 425.49 779.95 414.23 790.4 439.96"/><polygon class="cls-10" points="753.32 348.87 730.09 360.24 719.59 334.4 742.76 323.19 753.32 348.87"/><polygon class="cls-10" points="780.13 336.91 756.89 348.29 746.4 322.44 769.63 311.07 780.13 336.91"/><polygon class="cls-8" points="743.58 572.07 720.34 583.45 709.85 557.6 733.08 546.23 743.58 572.07"/><polygon class="cls-8" points="819.63 352.9 796.4 364.27 785.9 338.43 809.13 327.06 819.63 352.9"/><polygon class="cls-8" points="806.11 324.25 782.64 335.06 772.59 309.04 796.06 298.22 806.11 324.25"/><polygon class="cls-9" points="767.52 307.62 744.1 318.55 734.04 292.52 757.52 281.7 767.52 307.62"/><polygon class="cls-9" points="832.01 383.21 808.78 394.58 798.33 368.85 821.45 357.52 832.01 383.21"/><polygon class="cls-9" points="844.44 413.63 821.21 425 810.71 399.16 833.83 387.84 844.44 413.63"/><polygon class="cls-9" points="856.82 443.94 833.59 455.31 822.98 429.52 846.21 418.15 856.82 443.94"/><polygon class="cls-9" points="869.09 474.3 845.97 485.62 835.4 459.94 858.64 448.57 869.09 474.3"/><polygon class="cls-9" points="881.52 504.72 858.28 516.09 847.79 490.25 871.02 478.88 881.52 504.72"/><polygon class="cls-9" points="893.9 535.03 870.66 546.4 860.17 520.56 883.4 509.19 893.9 535.03"/><polygon class="cls-9" points="906.28 565.34 883.04 576.71 872.55 550.87 895.83 539.61 906.28 565.34"/><polygon class="cls-9" points="918.71 595.76 895.47 607.14 884.98 581.3 908.1 569.97 918.71 595.76"/><polygon class="cls-9" points="723.36 691.13 700.12 702.5 689.63 676.66 712.8 665.45 723.36 691.13"/><polygon class="cls-9" points="731.52 721.11 708.05 731.93 698 705.9 721.47 695.08 731.52 721.11"/><polygon class="cls-9" points="761.16 707.44 737.69 718.25 727.64 692.22 751.11 681.41 761.16 707.44"/><polygon class="cls-9" points="793.04 693.47 769.91 704.8 759.3 679 782.59 667.75 793.04 693.47"/><polygon class="cls-9" points="821.76 679.52 798.53 690.9 788.03 665.05 811.27 653.68 821.76 679.52"/><polygon class="cls-9" points="849.77 665.74 826.54 677.12 816.09 651.39 839.33 640.01 849.77 665.74"/><polygon class="cls-9" points="877.1 652.52 853.82 663.78 843.37 638.05 866.6 626.67 877.1 652.52"/><polygon class="cls-9" points="904.48 639.13 881.2 650.39 870.64 624.71 893.88 613.34 904.48 639.13"/><polygon class="cls-9" points="931.09 626.08 907.85 637.45 897.36 611.61 920.48 600.28 931.09 626.08"/><polygon class="cls-10" points="752.71 676.78 729.48 688.16 718.98 662.32 742.26 651.05 752.71 676.78"/><polygon class="cls-10" points="892.06 608.71 868.82 620.08 858.32 594.24 881.49 583.03 892.06 608.71"/><polygon class="cls-11" points="772.31 558.12 749.02 569.38 738.57 543.65 761.7 532.33 772.31 558.12"/><polygon class="cls-11" points="784.69 588.43 761.45 599.8 750.95 573.96 774.08 562.64 784.69 588.43"/><polygon class="cls-10" points="755.96 602.38 732.72 613.76 722.27 588.03 745.4 576.7 755.96 602.38"/><polygon class="cls-10" points="802.66 397.55 779.43 408.93 768.98 383.2 792.1 371.87 802.66 397.55"/><polygon class="cls-10" points="817.79 426.57 794.55 437.95 783.94 412.15 807.23 400.89 817.79 426.57"/><polygon class="cls-8" points="727.95 616.16 704.71 627.54 694.22 601.69 717.45 590.32 727.95 616.16"/><polygon class="cls-10" points="740.33 646.47 717.09 657.85 706.6 632 729.83 620.63 740.33 646.47"/><polygon class="cls-10" points="830.39 457.71 807.26 469.04 796.7 443.36 819.94 431.99 830.39 457.71"/><polygon class="cls-10" points="780.77 663.12 757.53 674.49 746.92 648.7 770.16 637.32 780.77 663.12"/><polygon class="cls-11" points="798.91 545.07 775.67 556.44 765.18 530.6 788.41 519.23 798.91 545.07"/><polygon class="cls-11" points="768.39 632.81 745.15 644.18 734.65 618.34 757.78 607.01 768.39 632.81"/><polygon class="cls-11" points="810.67 575.77 787.39 587.03 776.82 561.35 800.06 549.98 810.67 575.77"/><polygon class="cls-11" points="797.07 618.74 773.83 630.12 763.22 604.32 786.46 592.95 797.07 618.74"/><polygon class="cls-11" points="826.31 529.83 803.07 541.21 792.58 515.37 815.7 504.04 826.31 529.83"/><polygon class="cls-11" points="839.24 561.75 816.11 573.08 805.5 547.29 828.74 535.91 839.24 561.75"/><polygon class="cls-11" points="808.04 649.78 784.81 661.15 774.31 635.31 797.55 623.94 808.04 649.78"/><polygon class="cls-11" points="822.94 606.13 799.81 617.45 789.21 591.66 812.44 580.29 822.94 606.13"/><polygon class="cls-11" points="835.32 636.44 812.08 647.81 801.59 621.97 824.82 610.6 835.32 636.44"/><polygon class="cls-10" points="840.4 490.21 817.16 501.58 806.67 475.74 829.9 464.37 840.4 490.21"/><polygon class="cls-10" points="863.38 622.77 840.14 634.14 829.64 608.3 852.77 596.98 863.38 622.77"/><polygon class="cls-10" points="879.67 578.4 856.44 589.77 845.94 563.93 869.18 552.56 879.67 578.4"/><polygon class="cls-10" points="851.51 517.5 828.27 528.87 817.78 503.03 841.01 491.66 851.51 517.5"/><polygon class="cls-11" points="850.66 591.68 827.43 603.05 816.93 577.21 840.17 565.84 850.66 591.68"/><polygon class="cls-8" points="864.55 549.38 841.31 560.75 830.82 534.91 854.05 523.53 864.55 549.38"/><polygon class="cls-9" points="584.37 354.81 561.06 365.69 551.01 339.66 574.48 328.85 584.37 354.81"/><polygon class="cls-9" points="616.07 341.98 592.71 352.75 582.66 326.72 606.13 315.9 616.07 341.98"/><polygon class="cls-9" points="643.23 329.61 619.75 340.43 609.7 314.4 633.17 303.58 643.23 329.61"/><polygon class="cls-9" points="671.74 316.41 648.27 327.22 638.22 301.19 661.69 290.38 671.74 316.41"/><polygon class="cls-9" points="700.21 303.09 676.74 313.91 666.8 287.83 690.16 277.06 700.21 303.09"/><polygon class="cls-9" points="727.26 290.77 703.9 301.54 693.85 275.51 717.32 264.69 727.26 290.77"/><polygon class="cls-9" points="755.88 278.44 732.52 289.21 722.47 263.18 745.94 252.37 755.88 278.44"/><polygon class="cls-9" points="782.17 265.26 758.81 276.03 748.76 250 772.12 239.23 782.17 265.26"/></g><path class="cls-12" d="M1593,916.34c-.24-2.92-.43-5.84-.65-8.76-.26-1.52-.52-3-.79-4.56-1.84-10.28-5.44-21.48-7.22-32.61-1.22-3.83-2.44-7.65-3.57-11.47q-5.34-10.44-11-21.57l-47.12-45.08c-22.95-20-53.06-29.68-87.26-33.51l-18.5,4.92c-1.31-10.31-9.78-18.86-24.88-25.79-14.64-5.61-27.59-5.67-38.18,2-12,2.53-15,8.25-13.91,15.4-8.21-17.34-24.16-27.83-45-33.93-17.85-2.82-36.31,6.19-55,20l4.47,30.31c-9.87-30.08-28.41-61.29-54.59-93.48-8.44-22.89-45.19-107.17-78.39-132.17,10,28.07,11.35,48.65-7.89,51.59-6.23,6.35-17.85-5.49-32.94-29,10.7,29.68,13.55,52.64,30.91,85,32.18,88.2,52,144,37.77,132.57,18.39,33,18,51.09,4.88,59,0,0-7.31,69-1.2,68.26-.16.07,127.79,141,127.49,140.72,0,0,122,60.7,155.59,92.3L1647,1080.52,1605.59,979C1597.82,957.9,1593,937,1593,916.34Z"/><path class="cls-13" d="M1471.58,818.89c-21-14.08-40.18-39.23-59-66.2"/><path class="cls-14" d="M1367.82,811.36c-3.16,2.94-5.62,1.3-7.46-4.32-12.23-29.58-22.61-48.24-31.24-56.49"/><path class="cls-15" d="M1268.42,884.56a66.32,66.32,0,0,1,10-23.35,52.69,52.69,0,0,0-1.75,23.86c3-6.7,4.27-15,4.28-24.53-8.9-33.48-23.39-66.37-40.74-99"/><path class="cls-15" d="M1141.7,753.54q15.16-25.62,53.62-28.64"/><path class="cls-15" d="M1153,756.09q10.29-16,34.92-17"/><path class="cls-15" d="M1208.12,757.36q-17.23,24.28-55.8,24.1"/><path class="cls-15" d="M1191.81,753.75q-10.08,16.14-34.69,17.47"/><path class="cls-15" d="M1144.31,787c11.34,9.84,31.21,51.81,51.9,96.91,6,29.41,17.1,53.86,33.8,72.91,11.16,9.63,20.15,28.57,29,48.09"/><path class="cls-16" d="M1353.47,798.07c6.38-8.21,9.69-16.18,27.5-25.3,13.06-5.59,30.59-2.19,49.89,4.75l-2.24-8.41c-18.34-9.65-36.92-12.88-55.83-6.76l-8.35-7.68c-3.33,2.59-4.88,5.34-4.1,8.28-2-1.08-3.69-.53-5,1.34,0,0,6.66,8.13,3.13,11.77s-9.43,5.2-9.43,5.2Z"/><path class="cls-17" d="M1144,845.17q-20.57-30.33-23.65-72c6.2-1.13,11.47,1.32,16.53,4.61l15.16,40.07C1155.64,828.43,1153.59,837.69,1144,845.17Z"/><path class="cls-17" d="M1093.24,596.78c9.53,2,17.66.64,23.56-6.26,2.63-15.44.36-30.19-5.52-44.43l-6.55-14.46c-17.93-6.31-32.49-3-42,14.76Q1072.61,573,1093.24,596.78Z"/></g></svg>
