<?xml version="1.0" encoding="utf-8"?>
<!-- Generator: Adobe Illustrator 22.0.1, SVG Export Plug-In . SVG Version: 6.00 Build 0)  -->
<svg version="1.1" id="Layer_1" xmlns="http://www.w3.org/2000/svg" xmlns:xlink="http://www.w3.org/1999/xlink" x="0px" y="0px"
	 viewBox="0 0 1600 900" style="enable-background:new 0 0 1600 900;" xml:space="preserve">
<style type="text/css">
	.st0{fill:#003507;}
	.st1{fill:#212139;}
	.st2{fill:#FFE3BF;}
	.st3{fill:#FFFFFF;}
	.st4{fill:#FFCFB4;}
	.st5{fill:#FFB894;}
</style>
<g id="Layer_4">
	<path class="st0" d="M653.9,136.5c1.9-10.2,6.6-18.4,15-24h211c11,4.6,17.1,13.7,22,24l1,487c-1.6,12.5-8.5,22.6-21,30h-202
		c-12.9-5.9-22.1-13.4-26-23v-489"/>
	<polygon class="st0" points="653.9,299.4 648.9,299.5 648.9,282.5 653.9,282.5 	"/>
	<polygon class="st0" points="653.9,253.3 648.9,253.5 648.9,235.5 652.9,235.5 	"/>
	<polygon class="st0" points="648.9,235.5 654.9,235.5 654.9,250.5 653.9,253.5 	"/>

		<rect x="670.9" y="185.5" transform="matrix(0.9999 -1.274080e-02 1.274080e-02 0.9999 -4.7467 9.9078)" class="st1" width="208.7" height="384"/>
	<polygon class="st2" points="753.4,351.4 732.1,352.6 732.4,329.6 753.7,328.4 	"/>
	<polygon class="st2" points="829.2,293.2 807.9,294.4 808.1,271.4 829.4,270.2 	"/>
	<polygon class="st3" points="699,354.4 677.7,355.6 678,332.7 699.2,331.5 	"/>
	<polygon class="st4" points="726.2,325.9 704.9,327.1 705.2,304.1 726.5,302.9 	"/>
	<polygon class="st2" points="725.9,352.9 704.6,354.1 704.9,331.2 726.1,330 	"/>
	<polygon class="st4" points="753.7,324.4 732.5,325.6 732.7,302.6 754,301.4 	"/>
	<polygon class="st3" points="699.9,273.3 678.6,274.5 678.9,251.6 700.2,250.4 	"/>
	<polygon class="st3" points="699.6,300.4 678.3,301.6 678.6,278.6 699.9,277.4 	"/>
	<polygon class="st2" points="725.6,380 704.3,381.2 704.6,358.2 725.8,357 	"/>
	<polygon class="st4" points="699.3,327.4 678,328.6 678.3,305.6 699.5,304.4 	"/>
	<polygon class="st4" points="754,297.4 732.8,298.5 733,275.6 754.3,274.4 	"/>
	<polygon class="st3" points="726.8,271.9 705.5,273 705.8,250.1 727.1,248.9 	"/>
	<polygon class="st4" points="726.5,298.9 705.2,300.1 705.5,277.1 726.8,275.9 	"/>
	<polygon class="st4" points="778.8,269 757.5,270.1 757.8,247.2 779,246 	"/>
	<polygon class="st5" points="778.5,296 757.2,297.2 757.4,274.2 778.7,273 	"/>
	<polygon class="st3" points="754.4,270.3 733.1,271.5 733.3,248.5 754.6,247.3 	"/>
	<polygon class="st2" points="725.2,407 704,408.2 704.2,385.2 725.5,384 	"/>
	<polygon class="st4" points="804.1,294.6 782.8,295.7 783.1,272.8 804.4,271.6 	"/>
	<polygon class="st5" points="803.8,321.6 782.5,322.8 782.8,299.8 804.1,298.6 	"/>
	<polygon class="st3" points="698.6,381.5 677.4,382.7 677.6,359.7 698.9,358.5 	"/>
	<polygon class="st5" points="777.8,350.1 756.5,351.2 756.8,328.3 778.1,327.1 	"/>
	<polygon class="st5" points="803.5,348.6 782.2,349.8 782.5,326.8 803.8,325.6 	"/>
	<polygon class="st5" points="777.5,377.1 756.2,378.3 756.5,355.3 777.8,354.1 	"/>
	<polygon class="st3" points="698.3,408.5 677.1,409.7 677.3,386.7 698.6,385.5 	"/>
	<polygon class="st4" points="751.2,378.6 729.9,379.7 730.2,356.8 751.5,355.6 	"/>
	<polygon class="st4" points="828.8,320.2 807.6,321.4 807.8,298.4 829.1,297.2 	"/>
	<polygon class="st4" points="804.4,267.5 783.1,268.7 783.4,245.7 804.7,244.6 	"/>
	<polygon class="st3" points="700.2,246.3 678.9,247.5 679.2,224.5 700.5,223.3 	"/>
	<polygon class="st3" points="706,244.7 704.3,223.5 727.2,223.1 729,244.4 	"/>
	<polygon class="st3" points="752.8,243.4 731.5,244.6 731.8,221.6 753.1,220.4 	"/>
	<polygon class="st3" points="779.1,241.9 757.8,243.1 758.1,220.1 779.4,219 	"/>
	<polygon class="st3" points="803.4,241 782.2,241.7 782.9,218.7 804.1,218 	"/>
	<polygon class="st3" points="828.7,240.2 807.4,240.9 808.1,217.9 829.4,217.2 	"/>
	<polygon class="st3" points="698,435.5 676.7,436.7 677,413.7 698.3,412.6 	"/>
	<polygon class="st3" points="697.7,462.6 676.4,463.8 676.7,440.8 698,439.6 	"/>
	<polygon class="st5" points="803.2,375.7 781.9,376.8 782.2,353.9 803.4,352.7 	"/>
	<polygon class="st4" points="853.1,291.8 831.8,292.9 832.1,270 853.3,268.8 	"/>
	<polygon class="st2" points="750.9,405.6 729.6,406.8 729.9,383.8 751.2,382.6 	"/>
	<polygon class="st2" points="724.9,434 703.7,435.2 703.9,412.2 725.2,411.1 	"/>
	<polygon class="st5" points="778.1,323 756.9,324.2 757.1,301.2 778.4,300 	"/>
	<polygon class="st5" points="777.2,404.1 755.9,405.3 756.2,382.3 777.5,381.1 	"/>
	<polygon class="st3" points="697.4,489.6 676.1,490.8 676.4,467.8 697.7,466.6 	"/>
	<polygon class="st3" points="878.3,237.3 857.1,238 857.8,215 879,214.3 	"/>
	<polygon class="st5" points="802.9,402.7 781.6,403.9 781.8,380.9 803.1,379.7 	"/>
	<polygon class="st4" points="827.9,400.6 806.6,401.8 806.9,378.8 828.2,377.6 	"/>
	<polygon class="st4" points="828.2,374.3 806.9,375.4 807.2,352.5 828.5,351.3 	"/>
	<polygon class="st4" points="828.5,347.2 807.2,348.4 807.5,325.4 828.8,324.3 	"/>
	<polygon class="st4" points="829.5,266.1 808.2,267.3 808.5,244.3 829.7,243.2 	"/>
	<polygon class="st4" points="853.7,265.6 832.4,266.8 832.7,243.8 854,242.6 	"/>
	<polygon class="st2" points="750.6,432.6 729.3,433.8 729.6,410.8 750.9,409.6 	"/>
	<polygon class="st2" points="878.6,290.4 857.3,291.6 857.6,268.6 878.9,267.4 	"/>
	<polygon class="st2" points="877.5,264.3 856.2,265 856.9,242 878.2,241.3 	"/>
	<polygon class="st3" points="853.5,239.3 832.2,240.1 832.9,217.1 854.2,216.4 	"/>
	<polygon class="st3" points="878.3,317.4 857,318.6 857.3,295.7 878.5,294.5 	"/>
	<polygon class="st3" points="878,344.5 856.7,345.7 857,322.7 878.2,321.5 	"/>
	<polygon class="st3" points="877.7,371.5 856.4,372.7 856.6,349.7 877.9,348.5 	"/>
	<polygon class="st3" points="877.3,398.5 856.1,399.7 856.3,376.8 877.6,375.6 	"/>
	<polygon class="st3" points="877,425.6 855.7,426.8 856,403.8 877.3,402.6 	"/>
	<polygon class="st3" points="876.7,452.6 855.4,453.8 855.7,430.8 877,429.6 	"/>
	<polygon class="st3" points="876.4,479.6 855.1,480.8 855.4,457.8 876.7,456.7 	"/>
	<polygon class="st3" points="876.1,506.7 854.8,507.9 855.1,484.9 876.3,483.7 	"/>
	<polygon class="st3" points="697.1,516.6 675.8,517.8 676.1,494.8 697.3,493.7 	"/>
	<polygon class="st3" points="693.7,542 672.4,542.7 673.1,519.7 694.4,519 	"/>
	<polygon class="st3" points="720.6,541.1 699.3,541.8 700,518.8 721.3,518.1 	"/>
	<polygon class="st3" points="749.3,540.7 728.1,541.9 728.3,518.9 749.6,517.8 	"/>
	<polygon class="st3" points="775.6,539.3 754.3,540.5 754.6,517.5 775.9,516.3 	"/>
	<polygon class="st3" points="801.3,537.8 780,539 780.3,516.1 801.6,514.9 	"/>
	<polygon class="st3" points="826.3,536.5 805,537.6 805.3,514.7 826.6,513.5 	"/>
	<polygon class="st3" points="851.4,535.1 830.1,536.2 830.3,513.3 851.6,512.1 	"/>
	<polygon class="st3" points="875.8,533.7 854.5,534.9 854.8,511.9 876,510.7 	"/>
	<polygon class="st4" points="724,515.1 702.7,516.3 703,493.3 724.3,492.2 	"/>
	<polygon class="st4" points="851.7,508 830.4,509.2 830.7,486.2 851.9,485.1 	"/>
	<polygon class="st5" points="776.9,431.2 755.6,432.3 755.9,409.4 777.1,408.2 	"/>
	<polygon class="st5" points="776.6,458.2 755.3,459.4 755.6,436.4 776.8,435.2 	"/>
	<polygon class="st4" points="750.3,459.6 729,460.8 729.3,437.9 750.5,436.7 	"/>
	<polygon class="st4" points="851.4,318.9 830.1,320.1 830.4,297.2 851.6,296 	"/>
	<polygon class="st4" points="853.6,345.8 832.3,347 832.5,324 853.8,322.9 	"/>
	<polygon class="st2" points="724.6,461.1 703.3,462.3 703.6,439.3 724.9,438.1 	"/>
	<polygon class="st4" points="724.3,488.1 703,489.3 703.3,466.3 724.6,465.1 	"/>
	<polygon class="st4" points="853.2,373.5 832,374.7 832.2,351.8 853.5,350.6 	"/>
	<polygon class="st4" points="749.7,513.7 728.4,514.9 728.6,491.9 749.9,490.7 	"/>
	<polygon class="st5" points="801.3,429.8 780,431 780.3,408 801.6,406.8 	"/>
	<polygon class="st5" points="750,486.7 728.7,487.9 729,464.9 750.2,463.7 	"/>
	<polygon class="st5" points="800.4,456.9 779.1,458 779.3,435.1 800.6,433.9 	"/>
	<polygon class="st5" points="776.3,485.2 755,486.4 755.2,463.4 776.5,462.2 	"/>
	<polygon class="st5" points="827,427 805.7,428.2 806,405.2 827.2,404 	"/>
	<polygon class="st5" points="826.6,455.4 805.4,456.6 805.6,433.6 826.9,432.4 	"/>
	<polygon class="st5" points="774.7,512.3 753.4,513.5 753.7,490.5 775,489.3 	"/>
	<polygon class="st5" points="800,483.9 778.8,485.1 779,462.1 800.3,460.9 	"/>
	<polygon class="st5" points="799.7,510.9 778.4,512.1 778.7,489.1 800,487.9 	"/>
	<polygon class="st4" points="850.4,401.4 829.1,402.6 829.4,379.6 850.7,378.4 	"/>
	<polygon class="st4" points="825.4,509.5 804.1,510.7 804.4,487.7 825.6,486.5 	"/>
	<polygon class="st4" points="852,481 830.7,482.2 831,459.2 852.3,458 	"/>
	<polygon class="st4" points="850.1,425.7 828.8,426.9 829.1,403.9 850.4,402.7 	"/>
	<polygon class="st5" points="825.7,481.8 804.4,483 804.7,460 826,458.8 	"/>
	<polygon class="st2" points="849.8,454.1 828.5,455.3 828.8,432.3 850.1,431.1 	"/>
	<polygon class="st3" points="699.2,216.5 678,217.3 678.7,194.3 700,193.6 	"/>
	<polygon class="st3" points="727.4,216.9 706.2,217.6 706.9,194.6 728.2,193.9 	"/>
	<polygon class="st3" points="752,216.2 730.7,216.9 731.4,193.9 752.7,193.2 	"/>
	<polygon class="st3" points="777.9,215.3 756.6,216 757.3,193 778.6,192.3 	"/>
	<polygon class="st3" points="803.8,214.3 782.5,215 783.3,192 804.5,191.3 	"/>
	<polygon class="st3" points="828.3,213.6 807.1,214.3 807.8,191.3 829.1,190.6 	"/>
	<polygon class="st3" points="854,213.4 832.8,214.1 833.5,191.1 854.8,190.4 	"/>
	<polygon class="st3" points="878.2,211.8 857,212.5 857.7,189.5 878.9,188.8 	"/>
</g>
</svg>
