<?xml version="1.0" encoding="utf-8"?>
<!-- Generator: Adobe Illustrator 22.0.1, SVG Export Plug-In . SVG Version: 6.00 Build 0)  -->
<svg version="1.1" id="Layer_1" xmlns="http://www.w3.org/2000/svg" xmlns:xlink="http://www.w3.org/1999/xlink" x="0px" y="0px"
	 viewBox="0 0 1600 900" style="enable-background:new 0 0 1600 900;" xml:space="preserve">
<style type="text/css">
	.st0{fill:#D36A70;}
	.st1{fill:#212139;}
	.st2{fill:#FFE3BF;}
	.st3{fill:#FFFFFF;}
	.st4{fill:#FFCFB4;}
	.st5{fill:#FFB894;}
</style>
<g id="Layer_4">
	<path class="st0" d="M678,142.1c1.9-10.2,6.6-18.4,15-24h211c11,4.6,17.1,13.7,22,24l1,487c-1.6,12.5-8.5,22.6-21,30H704
		c-12.9-5.9-22.1-13.4-26-23v-489"/>
	<polygon class="st0" points="678,305 673,305.1 673,288.1 678,288.1 	"/>
	<polygon class="st0" points="678,258.9 673,259.1 673,241.1 677,241.1 	"/>
	<polygon class="st0" points="673,241.1 679,241.1 679,256.1 678,259.1 	"/>

		<rect x="695" y="191.1" transform="matrix(0.9999 -1.274080e-02 1.274080e-02 0.9999 -4.816 10.2154)" class="st1" width="208.7" height="384"/>
	<polygon class="st2" points="777.5,357 756.2,358.2 756.5,335.2 777.8,334 	"/>
	<polygon class="st2" points="853.3,298.8 832,300 832.2,277 853.5,275.8 	"/>
	<polygon class="st3" points="723.1,360 701.8,361.2 702.1,338.3 723.3,337.1 	"/>
	<polygon class="st4" points="750.3,331.5 729,332.7 729.3,309.7 750.6,308.5 	"/>
	<polygon class="st2" points="750,358.5 728.7,359.7 729,336.8 750.2,335.6 	"/>
	<polygon class="st4" points="777.8,330 756.6,331.2 756.8,308.2 778.1,307 	"/>
	<polygon class="st3" points="724,278.9 702.7,280.1 703,257.2 724.3,256 	"/>
	<polygon class="st3" points="723.7,306 702.4,307.2 702.7,284.2 724,283 	"/>
	<polygon class="st2" points="749.7,385.6 728.4,386.8 728.7,363.8 749.9,362.6 	"/>
	<polygon class="st4" points="723.4,333 702.1,334.2 702.4,311.2 723.6,310 	"/>
	<polygon class="st4" points="778.1,303 756.9,304.1 757.1,281.2 778.4,280 	"/>
	<polygon class="st3" points="750.9,277.5 729.6,278.6 729.9,255.7 751.2,254.5 	"/>
	<polygon class="st4" points="750.6,304.5 729.3,305.7 729.6,282.7 750.9,281.5 	"/>
	<polygon class="st4" points="802.9,274.6 781.6,275.7 781.9,252.8 803.1,251.6 	"/>
	<polygon class="st5" points="802.6,301.6 781.3,302.8 781.5,279.8 802.8,278.6 	"/>
	<polygon class="st3" points="778.5,275.9 757.2,277.1 757.4,254.1 778.7,252.9 	"/>
	<polygon class="st2" points="749.3,412.6 728.1,413.8 728.3,390.8 749.6,389.6 	"/>
	<polygon class="st4" points="828.2,300.2 806.9,301.3 807.2,278.4 828.5,277.2 	"/>
	<polygon class="st5" points="827.9,327.2 806.6,328.4 806.9,305.4 828.2,304.2 	"/>
	<polygon class="st3" points="722.7,387.1 701.5,388.3 701.7,365.3 723,364.1 	"/>
	<polygon class="st5" points="801.9,355.7 780.6,356.8 780.9,333.9 802.2,332.7 	"/>
	<polygon class="st5" points="827.6,354.2 806.3,355.4 806.6,332.4 827.9,331.2 	"/>
	<polygon class="st5" points="801.6,382.7 780.3,383.9 780.6,360.9 801.9,359.7 	"/>
	<polygon class="st3" points="722.4,414.1 701.2,415.3 701.4,392.3 722.7,391.1 	"/>
	<polygon class="st4" points="775.3,384.2 754,385.3 754.3,362.4 775.6,361.2 	"/>
	<polygon class="st4" points="852.9,325.8 831.7,327 831.9,304 853.2,302.8 	"/>
	<polygon class="st4" points="828.5,273.1 807.2,274.3 807.5,251.3 828.8,250.2 	"/>
	<polygon class="st3" points="724.3,251.9 703,253.1 703.3,230.1 724.6,228.9 	"/>
	<polygon class="st3" points="730.1,250.3 728.4,229.1 751.3,228.7 753.1,250 	"/>
	<polygon class="st3" points="776.9,249 755.6,250.2 755.9,227.2 777.2,226 	"/>
	<polygon class="st3" points="803.2,247.5 781.9,248.7 782.2,225.7 803.5,224.6 	"/>
	<polygon class="st3" points="827.5,246.6 806.3,247.3 807,224.3 828.2,223.6 	"/>
	<polygon class="st3" points="852.8,245.8 831.5,246.5 832.2,223.5 853.5,222.8 	"/>
	<polygon class="st3" points="722.1,441.1 700.8,442.3 701.1,419.3 722.4,418.2 	"/>
	<polygon class="st3" points="721.8,468.2 700.5,469.4 700.8,446.4 722.1,445.2 	"/>
	<polygon class="st5" points="827.3,381.3 806,382.4 806.3,359.5 827.5,358.3 	"/>
	<polygon class="st4" points="877.2,297.4 855.9,298.5 856.2,275.6 877.4,274.4 	"/>
	<polygon class="st2" points="775,411.2 753.7,412.4 754,389.4 775.3,388.2 	"/>
	<polygon class="st2" points="749,439.6 727.8,440.8 728,417.8 749.3,416.7 	"/>
	<polygon class="st5" points="802.2,328.6 781,329.8 781.2,306.8 802.5,305.6 	"/>
	<polygon class="st5" points="801.3,409.7 780,410.9 780.3,387.9 801.6,386.7 	"/>
	<polygon class="st3" points="721.5,495.2 700.2,496.4 700.5,473.4 721.8,472.2 	"/>
	<polygon class="st3" points="902.4,242.9 881.2,243.6 881.9,220.6 903.1,219.9 	"/>
	<polygon class="st5" points="827,408.3 805.7,409.5 805.9,386.5 827.2,385.3 	"/>
	<polygon class="st4" points="852,406.2 830.7,407.4 831,384.4 852.3,383.2 	"/>
	<polygon class="st4" points="852.3,379.9 831,381 831.3,358.1 852.6,356.9 	"/>
	<polygon class="st4" points="852.6,352.8 831.3,354 831.6,331 852.9,329.9 	"/>
	<polygon class="st4" points="853.6,271.7 832.3,272.9 832.6,249.9 853.8,248.8 	"/>
	<polygon class="st4" points="877.8,271.2 856.5,272.4 856.8,249.4 878.1,248.2 	"/>
	<polygon class="st2" points="774.7,438.2 753.4,439.4 753.7,416.4 775,415.2 	"/>
	<polygon class="st2" points="902.7,296 881.4,297.2 881.7,274.2 903,273 	"/>
	<polygon class="st2" points="901.6,269.9 880.3,270.6 881,247.6 902.3,246.9 	"/>
	<polygon class="st3" points="877.6,244.9 856.3,245.7 857,222.7 878.3,222 	"/>
	<polygon class="st3" points="902.4,323 881.1,324.2 881.4,301.3 902.6,300.1 	"/>
	<polygon class="st3" points="902.1,350.1 880.8,351.3 881.1,328.3 902.3,327.1 	"/>
	<polygon class="st3" points="901.8,377.1 880.5,378.3 880.7,355.3 902,354.1 	"/>
	<polygon class="st3" points="901.4,404.1 880.2,405.3 880.4,382.4 901.7,381.2 	"/>
	<polygon class="st3" points="901.1,431.2 879.8,432.4 880.1,409.4 901.4,408.2 	"/>
	<polygon class="st3" points="900.8,458.2 879.5,459.4 879.8,436.4 901.1,435.2 	"/>
	<polygon class="st3" points="900.5,485.2 879.2,486.4 879.5,463.4 900.8,462.3 	"/>
	<polygon class="st3" points="900.2,512.3 878.9,513.5 879.2,490.5 900.4,489.3 	"/>
	<polygon class="st3" points="721.2,522.2 699.9,523.4 700.2,500.4 721.4,499.3 	"/>
	<polygon class="st3" points="717.8,547.6 696.5,548.3 697.2,525.3 718.5,524.6 	"/>
	<polygon class="st3" points="744.7,546.7 723.4,547.4 724.1,524.4 745.4,523.7 	"/>
	<polygon class="st3" points="773.4,546.3 752.2,547.5 752.4,524.5 773.7,523.4 	"/>
	<polygon class="st3" points="799.7,544.9 778.4,546.1 778.7,523.1 800,521.9 	"/>
	<polygon class="st3" points="825.4,543.4 804.1,544.6 804.4,521.7 825.7,520.5 	"/>
	<polygon class="st3" points="850.4,542.1 829.1,543.2 829.4,520.3 850.7,519.1 	"/>
	<polygon class="st3" points="875.5,540.7 854.2,541.8 854.4,518.9 875.7,517.7 	"/>
	<polygon class="st3" points="899.9,539.3 878.6,540.5 878.9,517.5 900.1,516.3 	"/>
	<polygon class="st4" points="748.1,520.7 726.8,521.9 727.1,498.9 748.4,497.8 	"/>
	<polygon class="st4" points="875.8,513.6 854.5,514.8 854.8,491.8 876,490.7 	"/>
	<polygon class="st5" points="801,436.8 779.7,437.9 780,415 801.2,413.8 	"/>
	<polygon class="st5" points="800.7,463.8 779.4,465 779.7,442 800.9,440.8 	"/>
	<polygon class="st4" points="774.4,465.2 753.1,466.4 753.4,443.5 774.6,442.3 	"/>
	<polygon class="st4" points="875.5,324.5 854.2,325.7 854.5,302.8 875.7,301.6 	"/>
	<polygon class="st4" points="877.7,351.4 856.4,352.6 856.6,329.6 877.9,328.5 	"/>
	<polygon class="st2" points="748.7,466.7 727.4,467.9 727.7,444.9 749,443.7 	"/>
	<polygon class="st4" points="748.4,493.7 727.1,494.9 727.4,471.9 748.7,470.7 	"/>
	<polygon class="st4" points="877.3,379.1 856.1,380.3 856.3,357.4 877.6,356.2 	"/>
	<polygon class="st4" points="773.8,519.3 752.5,520.5 752.7,497.5 774,496.3 	"/>
	<polygon class="st5" points="825.4,435.4 804.1,436.6 804.4,413.6 825.7,412.4 	"/>
	<polygon class="st5" points="774.1,492.3 752.8,493.5 753.1,470.5 774.3,469.3 	"/>
	<polygon class="st5" points="824.5,462.5 803.2,463.6 803.4,440.7 824.7,439.5 	"/>
	<polygon class="st5" points="800.4,490.8 779.1,492 779.3,469 800.6,467.8 	"/>
	<polygon class="st5" points="851.1,432.6 829.8,433.8 830.1,410.8 851.3,409.6 	"/>
	<polygon class="st5" points="850.7,461 829.5,462.2 829.7,439.2 851,438 	"/>
	<polygon class="st5" points="798.8,517.9 777.5,519.1 777.8,496.1 799.1,494.9 	"/>
	<polygon class="st5" points="824.1,489.5 802.9,490.7 803.1,467.7 824.4,466.5 	"/>
	<polygon class="st5" points="823.8,516.5 802.5,517.7 802.8,494.7 824.1,493.5 	"/>
	<polygon class="st4" points="874.5,407 853.2,408.2 853.5,385.2 874.8,384 	"/>
	<polygon class="st4" points="849.5,515.1 828.2,516.3 828.5,493.3 849.7,492.1 	"/>
	<polygon class="st4" points="876.1,486.6 854.8,487.8 855.1,464.8 876.4,463.6 	"/>
	<polygon class="st4" points="874.2,431.3 852.9,432.5 853.2,409.5 874.5,408.3 	"/>
	<polygon class="st5" points="849.8,487.4 828.5,488.6 828.8,465.6 850.1,464.4 	"/>
	<polygon class="st2" points="873.9,459.7 852.6,460.9 852.9,437.9 874.2,436.7 	"/>
	<polygon class="st3" points="723.3,222.1 702.1,222.9 702.8,199.9 724.1,199.2 	"/>
	<polygon class="st3" points="751.5,222.5 730.3,223.2 731,200.2 752.3,199.5 	"/>
	<polygon class="st3" points="776.1,221.8 754.8,222.5 755.5,199.5 776.8,198.8 	"/>
	<polygon class="st3" points="802,220.9 780.7,221.6 781.4,198.6 802.7,197.9 	"/>
	<polygon class="st3" points="827.9,219.9 806.6,220.6 807.4,197.6 828.6,196.9 	"/>
	<polygon class="st3" points="852.4,219.2 831.2,219.9 831.9,196.9 853.2,196.2 	"/>
	<polygon class="st3" points="878.1,219 856.9,219.7 857.6,196.7 878.9,196 	"/>
	<polygon class="st3" points="902.3,217.4 881.1,218.1 881.8,195.1 903,194.4 	"/>
</g>
</svg>
