<?xml version="1.0" encoding="utf-8"?>
<!-- Generator: Adobe Illustrator 22.0.1, SVG Export Plug-In . SVG Version: 6.00 Build 0)  -->
<svg version="1.1" id="Layer_1" xmlns="http://www.w3.org/2000/svg" xmlns:xlink="http://www.w3.org/1999/xlink" x="0px" y="0px"
	 viewBox="0 0 1600 900" style="enable-background:new 0 0 1600 900;" xml:space="preserve">
<style type="text/css">
	.st0{opacity:0.88;fill:#3A0000;enable-background:new    ;}
	.st1{fill:#3A0000;}
	.st2{fill:#212139;}
	.st3{fill:#FFE3BF;}
	.st4{fill:#FFFFFF;}
	.st5{fill:#FFCFB4;}
	.st6{fill:#FFB894;}
</style>
<title>rødedone</title>
<g id="rød">
	<path class="st0" d="M677,134.9c1.9-10.2,6.6-18.4,15-24h211c11,4.6,17.1,13.7,22,24l1,487c-1.6,12.5-8.5,22.6-21,30H703
		c-12.9-5.9-22.1-13.4-26-23v-489"/>
	<polygon class="st1" points="677,297.8 672,297.9 672,280.9 677,280.9 	"/>
	<polygon class="st1" points="677,251.7 672,251.9 672,233.9 676,233.9 	"/>
	<polygon class="st1" points="672,233.9 678,233.9 678,248.9 677,251.9 	"/>

		<image style="overflow:visible;enable-background:new    ;" width="284" height="462" xlink:href="F7CD5225CDD85F47.png"  transform="matrix(1 0 0 1 658 147.9)">
	</image>

		<rect x="692" y="182.7" transform="matrix(0.9999 -1.274056e-02 1.274056e-02 0.9999 -4.7815 10.217)" class="st2" width="215" height="395.4"/>
	<polygon class="st3" points="779.5,351.8 758.2,353 758.5,330 779.8,328.8 	"/>
	<polygon class="st3" points="855.3,293.6 834,294.8 834.2,271.8 855.5,270.6 	"/>
	<polygon class="st4" points="725.1,354.8 703.8,356 704.1,333.1 725.3,331.9 	"/>
	<polygon class="st5" points="752.3,326.3 731,327.5 731.3,304.5 752.6,303.3 	"/>
	<polygon class="st3" points="752,353.3 730.7,354.5 731,331.6 752.2,330.4 	"/>
	<polygon class="st5" points="779.8,324.8 758.6,326 758.8,303 780.1,301.8 	"/>
	<polygon class="st4" points="726,273.7 704.7,274.9 705,252 726.3,250.8 	"/>
	<polygon class="st4" points="725.7,300.8 704.4,302 704.7,279 726,277.8 	"/>
	<polygon class="st3" points="751.7,380.4 730.4,381.6 730.7,358.6 751.9,357.4 	"/>
	<polygon class="st5" points="725.4,327.8 704.1,329 704.4,306 725.6,304.8 	"/>
	<polygon class="st5" points="780.1,297.8 758.9,298.9 759.1,276 780.4,274.8 	"/>
	<polygon class="st4" points="752.9,272.3 731.6,273.4 731.9,250.5 753.2,249.3 	"/>
	<polygon class="st5" points="752.6,299.3 731.3,300.5 731.6,277.5 752.9,276.3 	"/>
	<polygon class="st5" points="804.9,269.4 783.6,270.5 783.9,247.6 805.1,246.4 	"/>
	<polygon class="st6" points="804.6,296.4 783.3,297.6 783.5,274.6 804.8,273.4 	"/>
	<polygon class="st4" points="780.5,270.7 759.2,271.9 759.4,248.9 780.7,247.7 	"/>
	<polygon class="st3" points="751.3,407.4 730.1,408.6 730.3,385.6 751.6,384.4 	"/>
	<polygon class="st5" points="830.2,295 808.9,296.1 809.2,273.2 830.5,272 	"/>
	<polygon class="st6" points="829.9,322 808.6,323.2 808.9,300.2 830.2,299 	"/>
	<polygon class="st4" points="724.7,381.9 703.5,383.1 703.7,360.1 725,358.9 	"/>
	<polygon class="st6" points="803.9,350.5 782.6,351.6 782.9,328.7 804.2,327.5 	"/>
	<polygon class="st6" points="829.6,349 808.3,350.2 808.6,327.2 829.9,326 	"/>
	<polygon class="st6" points="803.6,377.5 782.3,378.7 782.6,355.7 803.9,354.5 	"/>
	<polygon class="st4" points="724.4,408.9 703.2,410.1 703.4,387.1 724.7,385.9 	"/>
	<polygon class="st5" points="777.3,379 756,380.1 756.3,357.2 777.6,356 	"/>
	<polygon class="st5" points="854.9,320.6 833.7,321.8 833.9,298.8 855.2,297.6 	"/>
	<polygon class="st5" points="830.5,267.9 809.2,269.1 809.5,246.1 830.8,245 	"/>
	<polygon class="st4" points="726.3,246.7 705,247.9 705.3,224.9 726.6,223.7 	"/>
	<polygon class="st4" points="732.1,245.1 730.4,223.9 753.3,223.5 755.1,244.8 	"/>
	<polygon class="st4" points="778.9,243.8 757.6,245 757.9,222 779.2,220.8 	"/>
	<polygon class="st4" points="805.2,242.3 783.9,243.5 784.2,220.5 805.5,219.4 	"/>
	<polygon class="st4" points="829.5,241.4 808.3,242.1 809,219.1 830.2,218.4 	"/>
	<polygon class="st4" points="854.8,240.6 833.5,241.3 834.2,218.3 855.5,217.6 	"/>
	<polygon class="st4" points="724.1,435.9 702.8,437.1 703.1,414.1 724.4,413 	"/>
	<polygon class="st4" points="723.8,463 702.5,464.2 702.8,441.2 724.1,440 	"/>
	<polygon class="st6" points="829.3,376.1 808,377.2 808.3,354.3 829.5,353.1 	"/>
	<polygon class="st5" points="879.2,292.2 857.9,293.3 858.2,270.4 879.4,269.2 	"/>
	<polygon class="st3" points="777,406 755.7,407.2 756,384.2 777.3,383 	"/>
	<polygon class="st3" points="751,434.4 729.8,435.6 730,412.6 751.3,411.5 	"/>
	<polygon class="st6" points="804.2,323.4 783,324.6 783.2,301.6 804.5,300.4 	"/>
	<polygon class="st6" points="803.3,404.5 782,405.7 782.3,382.7 803.6,381.5 	"/>
	<polygon class="st4" points="723.5,490 702.2,491.2 702.5,468.2 723.8,467 	"/>
	<polygon class="st4" points="904.4,237.7 883.2,238.4 883.9,215.4 905.1,214.7 	"/>
	<polygon class="st6" points="829,403.1 807.7,404.3 807.9,381.3 829.2,380.1 	"/>
	<polygon class="st5" points="854,401 832.7,402.2 833,379.2 854.3,378 	"/>
	<polygon class="st5" points="854.3,374.7 833,375.8 833.3,352.9 854.6,351.7 	"/>
	<polygon class="st5" points="854.6,347.6 833.3,348.8 833.6,325.8 854.9,324.7 	"/>
	<polygon class="st5" points="855.6,266.5 834.3,267.7 834.6,244.7 855.8,243.6 	"/>
	<polygon class="st5" points="879.8,266 858.5,267.2 858.8,244.2 880.1,243 	"/>
	<polygon class="st3" points="776.7,433 755.4,434.2 755.7,411.2 777,410 	"/>
	<polygon class="st3" points="904.7,290.8 883.4,292 883.7,269 905,267.8 	"/>
	<polygon class="st3" points="903.6,264.7 882.3,265.4 883,242.4 904.3,241.7 	"/>
	<polygon class="st4" points="879.6,239.7 858.3,240.5 859,217.5 880.3,216.8 	"/>
	<polygon class="st4" points="904.4,317.8 883.1,319 883.4,296.1 904.6,294.9 	"/>
	<polygon class="st4" points="904.1,344.9 882.8,346.1 883.1,323.1 904.3,321.9 	"/>
	<polygon class="st4" points="903.8,371.9 882.5,373.1 882.7,350.1 904,348.9 	"/>
	<polygon class="st4" points="903.4,398.9 882.2,400.1 882.4,377.2 903.7,376 	"/>
	<polygon class="st4" points="903.1,426 881.8,427.2 882.1,404.2 903.4,403 	"/>
	<polygon class="st4" points="902.8,453 881.5,454.2 881.8,431.2 903.1,430 	"/>
	<polygon class="st4" points="902.5,480 881.2,481.2 881.5,458.2 902.8,457.1 	"/>
	<polygon class="st4" points="902.2,507.1 880.9,508.3 881.2,485.3 902.4,484.1 	"/>
	<polygon class="st4" points="723.2,517 701.9,518.2 702.2,495.2 723.4,494.1 	"/>
	<polygon class="st4" points="719.8,542.4 698.5,543.1 699.2,520.1 720.5,519.4 	"/>
	<polygon class="st4" points="746.7,541.5 725.4,542.2 726.1,519.2 747.4,518.5 	"/>
	<polygon class="st4" points="775.4,541.1 754.2,542.3 754.4,519.3 775.7,518.2 	"/>
	<polygon class="st4" points="801.7,539.7 780.4,540.9 780.7,517.9 802,516.7 	"/>
	<polygon class="st4" points="827.4,538.2 806.1,539.4 806.4,516.5 827.7,515.3 	"/>
	<polygon class="st4" points="852.4,536.9 831.1,538 831.4,515.1 852.7,513.9 	"/>
	<polygon class="st4" points="877.5,535.5 856.2,536.6 856.4,513.7 877.7,512.5 	"/>
	<polygon class="st4" points="901.9,534.1 880.6,535.3 880.9,512.3 902.1,511.1 	"/>
	<polygon class="st5" points="750.1,515.5 728.8,516.7 729.1,493.7 750.4,492.6 	"/>
	<polygon class="st5" points="877.8,508.4 856.5,509.6 856.8,486.6 878,485.5 	"/>
	<polygon class="st6" points="803,431.6 781.7,432.7 782,409.8 803.2,408.6 	"/>
	<polygon class="st6" points="802.7,458.6 781.4,459.8 781.7,436.8 802.9,435.6 	"/>
	<polygon class="st5" points="776.4,460 755.1,461.2 755.4,438.3 776.6,437.1 	"/>
	<polygon class="st5" points="877.5,319.3 856.2,320.5 856.5,297.6 877.7,296.4 	"/>
	<polygon class="st5" points="879.7,346.2 858.4,347.4 858.6,324.4 879.9,323.3 	"/>
	<polygon class="st3" points="750.7,461.5 729.4,462.7 729.7,439.7 751,438.5 	"/>
	<polygon class="st5" points="750.4,488.5 729.1,489.7 729.4,466.7 750.7,465.5 	"/>
	<polygon class="st5" points="879.3,373.9 858.1,375.1 858.3,352.2 879.6,351 	"/>
	<polygon class="st5" points="775.8,514.1 754.5,515.3 754.7,492.3 776,491.1 	"/>
	<polygon class="st6" points="827.4,430.2 806.1,431.4 806.4,408.4 827.7,407.2 	"/>
	<polygon class="st6" points="776.1,487.1 754.8,488.3 755.1,465.3 776.3,464.1 	"/>
	<polygon class="st6" points="826.5,457.3 805.2,458.4 805.4,435.5 826.7,434.3 	"/>
	<polygon class="st6" points="802.4,485.6 781.1,486.8 781.3,463.8 802.6,462.6 	"/>
	<polygon class="st6" points="853.1,427.4 831.8,428.6 832.1,405.6 853.3,404.4 	"/>
	<polygon class="st6" points="852.7,455.8 831.5,457 831.7,434 853,432.8 	"/>
	<polygon class="st6" points="800.8,512.7 779.5,513.9 779.8,490.9 801.1,489.7 	"/>
	<polygon class="st6" points="826.1,484.3 804.9,485.5 805.1,462.5 826.4,461.3 	"/>
	<polygon class="st6" points="825.8,511.3 804.5,512.5 804.8,489.5 826.1,488.3 	"/>
	<polygon class="st5" points="876.5,401.8 855.2,403 855.5,380 876.8,378.8 	"/>
	<polygon class="st5" points="851.5,509.9 830.2,511.1 830.5,488.1 851.7,486.9 	"/>
	<polygon class="st5" points="878.1,481.4 856.8,482.6 857.1,459.6 878.4,458.4 	"/>
	<polygon class="st5" points="876.2,426.1 854.9,427.3 855.2,404.3 876.5,403.1 	"/>
	<polygon class="st6" points="851.8,482.2 830.5,483.4 830.8,460.4 852.1,459.2 	"/>
	<polygon class="st3" points="875.9,454.5 854.6,455.7 854.9,432.7 876.2,431.5 	"/>
	<polygon class="st4" points="725.3,216.9 704.1,217.7 704.8,194.7 726.1,194 	"/>
	<polygon class="st4" points="753.5,217.3 732.3,218 733,195 754.3,194.3 	"/>
	<polygon class="st4" points="778.1,216.6 756.8,217.3 757.5,194.3 778.8,193.6 	"/>
	<polygon class="st4" points="804,215.7 782.7,216.4 783.4,193.4 804.7,192.7 	"/>
	<polygon class="st4" points="829.9,214.7 808.6,215.4 809.4,192.4 830.6,191.7 	"/>
	<polygon class="st4" points="854.4,214 833.2,214.7 833.9,191.7 855.2,191 	"/>
	<polygon class="st4" points="880.1,213.8 858.9,214.5 859.6,191.5 880.9,190.8 	"/>
	<polygon class="st4" points="904.3,212.2 883.1,212.9 883.8,189.9 905,189.2 	"/>
</g>
</svg>
