<svg xmlns="http://www.w3.org/2000/svg" xmlns:xlink="http://www.w3.org/1999/xlink" viewBox="0 0 5196 1018"><defs><style>.cls-1,.cls-17,.cls-4,.cls-5,.cls-6{fill:#ffc5b4;}.cls-18,.cls-19,.cls-2,.cls-20{fill:none;}.cls-3{opacity:0.89;}.cls-20,.cls-4,.cls-5{stroke:#ffb0b4;}.cls-17,.cls-18,.cls-19,.cls-20,.cls-4,.cls-5,.cls-6{stroke-miterlimit:10;}.cls-4{stroke-width:2px;}.cls-6{stroke:#ffc5c6;}.cls-7{fill:#212139;}.cls-8{fill:#a69ea1;}.cls-9{fill:#969093;}.cls-10{fill:#ded4d8;}.cls-11{fill:#666163;}.cls-12{fill:#e0d6db;}.cls-13{fill:#423f41;}.cls-14{fill:#fff;}.cls-15{fill:#242223;}.cls-16{fill:#2a84ff;}.cls-17{stroke:#ffc5b4;}.cls-18{stroke:#ffaab4;}.cls-19{stroke:#ffaeb4;}.cls-21{fill:url(#radial-gradient);}.cls-22{fill:#ff005d;}.cls-23{fill:#ffe3bf;}.cls-24{fill:#ffcfb4;}.cls-25{fill:#ffb894;}.cls-26{fill:url(#radial-gradient-2);}.cls-27{fill:url(#radial-gradient-3);}</style><radialGradient id="radial-gradient" cx="4485.3" cy="1671" r="33.83" gradientTransform="matrix(0.97, -0.26, 0.26, 0.97, -77.5, 403.84)" gradientUnits="userSpaceOnUse"><stop offset="0.21" stop-color="#f4f408"/><stop offset="0.22" stop-color="#f4f209"/><stop offset="0.37" stop-color="#f8d010"/><stop offset="0.52" stop-color="#fbb516"/><stop offset="0.67" stop-color="#fda21b"/><stop offset="0.83" stop-color="#ff971d"/><stop offset="1" stop-color="#ff931e"/></radialGradient><radialGradient id="radial-gradient-2" cx="1316.84" cy="853.13" r="33.28" xlink:href="#radial-gradient"/><radialGradient id="radial-gradient-3" cx="2661.93" cy="910.34" r="46.81" xlink:href="#radial-gradient"/></defs><title>sletsprite_DONE</title><g id="Layer_2" data-name="Layer 2"><path d="M600.44,734.67c-1.21-.52-3.38-4.69-4.17-5.78a24.69,24.69,0,0,1-4-9.29l-2.74,1.16,3.7,8.15,2.59-1.52-5.67-10.57A1.5,1.5,0,0,0,587.4,718c3.33,11.7,9.28,21.49,16.63,31.08,1.16,1.51,3.77,0,2.59-1.52-7.19-9.37-13.07-18.89-16.33-30.35l-2.74,1.15,5.67,10.58c.93,1.73,3.37.21,2.59-1.52l-3.7-8.15c-.73-1.61-3.09-.42-2.74,1.16A27.47,27.47,0,0,0,594.14,731c1.46,1.94,2.49,5.25,4.78,6.25,1.75.77,3.28-1.82,1.52-2.59Z"/><path d="M596.85,735.1a5.57,5.57,0,0,0,1.66,4.28,1.5,1.5,0,0,0,2.12-2.13,2.58,2.58,0,0,1-.78-2.15,1.5,1.5,0,0,0-3,0Z"/><path d="M591.64,716.65c-3.85-8.81-9.32-16.36-11.79-25.73l-2.74,1.16c1.32,2.71,2.75,5.39,3.92,8.17,1,2.27,1.31,4.64,2.17,6.93,1.75,4.7,4.66,8.59,5.87,13.57l2.51-1.46c-2.4-2-4-6.6-5.4-9.42a110.72,110.72,0,0,1-4.91-11.93l-2.74,1.16c2.08,2.71,1.85,6.46,3.3,9.53,1.72,3.65,4,7.09,6,10.58a1.5,1.5,0,0,0,2.59-1.52c-2-3.46-4.34-6.92-6-10.57-1.41-3.16-1.15-6.73-3.3-9.54-.93-1.21-3.38-.6-2.74,1.16a116,116,0,0,0,5.21,12.65c1.59,3.15,3.15,7.73,5.87,10A1.51,1.51,0,0,0,592,720c-1.32-5.43-4.68-9.68-6.32-14.9a99.94,99.94,0,0,0-5.95-14.48c-.76-1.56-3.17-.46-2.74,1.15,2.54,9.65,8.13,17.37,12.08,26.44.78,1.76,3.36.24,2.6-1.51Z"/><path d="M587,706.25c-10.27-26.72-20.57-53.43-32-79.68-.68-1.56-3.27-.45-2.74,1.15Q568.55,677,589,724.82c.76,1.77,3.34.24,2.59-1.52q-20.25-47.38-36.41-96.37l-2.74,1.15c11.32,26,21.52,52.49,31.7,79,.68,1.78,3.59,1,2.89-.8Z"/><path d="M555.63,628.42l-.51-2.44a1.52,1.52,0,0,0-2.9,0l1.11-2.07-.74-1.84a29.92,29.92,0,0,0-1.86-4.6l-3.33-8.3-2.75,1.16c7.25,14.53,11.87,30.34,17.21,45.64.64,1.81,3.54,1,2.9-.8-5.43-15.55-10.15-31.58-17.52-46.36-.74-1.49-3.38-.43-2.74,1.16L549,621c.95,2.34,1.6,4.89,3.17,6.89a1.47,1.47,0,0,0,1.45.39l.43-.11a1.49,1.49,0,0,0,1-1.05l.07-.38h-2.9l.52,2.44c.4,1.89,3.29,1.09,2.89-.79Z"/><path class="cls-1" d="M979.11,797.8l31.48,84.82c47-11.11,121.39-57.46,134.65-72.58,20-22.78-11.36-47.21-41.09-44.59S1015.62,769,979.11,797.8Z"/><path class="cls-1" d="M926.06,658.3l21,78.93c40.9-7,107.72-44.12,120.1-57,18.66-19.34-6.43-43.54-32-43.11S959.26,634.59,926.06,658.3Z"/><path class="cls-2" d="M489.45,348.37c-4.51,1.56,9.48,41.79,14,40.22"/><path class="cls-2" d="M773.63,280.16c0,22.23,6.26,40.22,14,40.22"/><path class="cls-2" d="M787.62,320.38c0-22.23-18.77-40.22-42-40.22"/><path class="cls-3" d="M455.69,394.08c-3.25-14.52-1.63-28,6.33-40.11L740.56,235.49c17-.15,30.3,8.4,42.52,19.33l274.79,642.35c4.91,17.47,1.42,34.6-10.88,51.39L780.32,1062c-20.39-.57-36.68-5.28-47.24-15.76L458.5,400.68"/><polygon points="545.05 609.14 538.5 612.07 528.96 589.63 535.56 586.82 545.05 609.14"/><polygon points="519.13 548.21 512.67 551.34 502.57 527.58 507.85 525.33 519.13 548.21"/><polygon points="502.57 527.58 510.49 524.21 518.91 544.01 519.27 548.53 502.57 527.58"/><path class="cls-1" d="M438.74,1039.14c-1.95-21.77-.33-113.46,21.86-137.28-3.74-46.26-2.33-90.11,7-130.29-15-38.53-26.47-77.6-28.85-118l2.67-4h0c1.8-2.7,28-45.58,43.34-65.2a196.58,196.58,0,0,1,35.3-34.84l36.73,90.06c24.37,75.05,39.05,98.82,46.15,107.64.64.79,6.59,8.13,14.18,17.4,13.64,16.65,20.25,24,22.79,27.6a235.6,235.6,0,0,1,27.93,53.71c2.61,22.38,18.45,39,37.6,54.22,12.76-7.54,98.79-53,146-50.72,26.07-3.43,49.15,3.52,68.2,24.49,12.22,41,21.74,81.1,0,111v21c.68-9.31,161-69.44,197.61-60.33,13.44,9.1,24.28,21.18,12.25,60.33-20.29,31.26-22.74,33.23-31.48,33.23Z"/><path class="cls-4" d="M639,984.92a240.53,240.53,0,0,1,35.85-50.71c18.25-19.76,31.74-27.6,29.73-33.23-1.9-5.35-17.66-8.37-83.07,4.37"/><path class="cls-1" d="M730.78,973.56l-64.7-46.35"/><path class="cls-4" d="M602.25,755.83a74.13,74.13,0,0,1-32.36-3.5,75.17,75.17,0,0,1-35-25.35"/><path class="cls-5" d="M887.3,887a99.63,99.63,0,0,1,20.55,36.29,100.74,100.74,0,0,1,1.31,54.65"/><path class="cls-5" d="M848.39,895.3a90.74,90.74,0,0,1,45.47,83.94"/><path class="cls-4" d="M915.72,983.61c-8.38,9.72-31,33.18-62.09,33.23a62.53,62.53,0,0,1-10.49-.88"/><path class="cls-4" d="M608.37,766.33a43.23,43.23,0,0,1-54.21,14.86"/><path class="cls-6" d="M956.38,664.9a96.68,96.68,0,0,0,21.86,43.72"/><path class="cls-5" d="M983.92,654a59.16,59.16,0,0,0,29.73,42.84"/><path class="cls-5" d="M1039.88,793c.6,5.35,3,20.73,15.74,33.23a52.91,52.91,0,0,0,17.49,11.37"/><path class="cls-5" d="M1033.76,794.74a49.12,49.12,0,0,0,10.49,29.73,47.76,47.76,0,0,0,16.62,13.12"/><path class="cls-5" d="M1032.89,981a85.47,85.47,0,0,0,46.34,48.09"/><path class="cls-5" d="M1021.52,984.49a79.81,79.81,0,0,0,46.34,47.21"/><path class="cls-5" d="M445.73,657A36.44,36.44,0,0,0,465,664a37,37,0,0,0,23.61-7"/><path d="M2294.93,641.36c-.68-.21-1.42-2.56-1.9-3.25-.86-1.27-1.9-2.4-2.8-3.64a29.4,29.4,0,0,1-4.88-11.2l-2.74,1.16,4.43,9.77,2.59-1.52L2282.84,620a1.5,1.5,0,0,0-2.74,1.15c4,14,11.12,25.72,19.91,37.18,1.15,1.51,3.76,0,2.59-1.52-8.63-11.25-15.71-22.69-19.61-36.45l-2.74,1.15L2287,634.2c.93,1.73,3.38.21,2.59-1.52l-4.43-9.76c-.73-1.62-3.09-.43-2.74,1.15a32.31,32.31,0,0,0,5.49,12.39c1.38,1.89,2.47,3.81,3.71,5.74a3.85,3.85,0,0,0,2.47,2.06c1.85.58,2.64-2.31.8-2.9Z"/><path d="M2291.43,641.77a6.42,6.42,0,0,0,1.91,4.92,1.5,1.5,0,0,0,2.12-2.13,3.48,3.48,0,0,1-1-2.79c.12-1.93-2.88-1.92-3,0Z"/><path d="M2284.63,619.8a101.61,101.61,0,0,0-7.71-15c-3.23-5-5-10.22-6.45-15.9l-2.74,1.16c1.41,2.88,2.89,5.74,4.23,8.65,1.44,3.11,1.9,6.35,3.1,9.52,2.13,5.65,5.6,10.24,7.05,16.26l2.5-1.46c-3.14-2.65-5.14-8.56-6.94-12.21a130.82,130.82,0,0,1-5.49-13.51l-2.51,1.46c2.52,3.11,2.31,8.3,4.14,11.93,2.05,4,4.49,7.93,6.75,11.87a1.5,1.5,0,0,0,2.59-1.51c-2.62-4.58-5.92-9.22-7.72-14.18-1.31-3.59-1.16-7.16-3.64-10.23-.94-1.16-3,.09-2.51,1.46a140.46,140.46,0,0,0,5.8,14.23c2,4,4,9.92,7.41,12.81a1.51,1.51,0,0,0,2.51-1.46c-1.56-6.51-5.6-11.6-7.57-17.86a119.5,119.5,0,0,0-7.11-17.29c-.76-1.56-3.16-.45-2.74,1.16,1.43,5.42,3,10.69,6,15.46a119.48,119.48,0,0,1,8.48,16.16c.77,1.76,3.36.24,2.59-1.52Z"/><path d="M2279.06,607.27c-12.3-32-24.64-64-38.33-95.44-.68-1.56-3.27-.45-2.75,1.15q19.5,59.07,44,116.32c.76,1.77,3.35.24,2.59-1.52q-24.28-56.84-43.67-115.59l-2.74,1.15c13.59,31.2,25.82,63,38,94.73.68,1.78,3.58,1,2.89-.8Z"/><path d="M2241.45,514l-.62-2.92a1.51,1.51,0,0,0-2.89,0c1-1,1.2-2,.54-3l-1.09-2.72-1.82-4.51-4-9.94-2.74,1.15c8.71,17.44,14.25,36.42,20.66,54.78.63,1.81,3.53,1,2.89-.79-6.49-18.62-12.13-37.82-21-55.5-.74-1.5-3.38-.43-2.74,1.15l5.09,12.65c1.18,2.93,2,6.25,4,8.74a1.49,1.49,0,0,0,1.46.39l.51-.14a1.49,1.49,0,0,0,1.05-1l.08-.45h-2.89l.61,2.92c.4,1.89,3.3,1.09,2.9-.8Z"/><path class="cls-1" d="M2749.34,716.93l37.73,101.67c56.3-13.32,145.51-68.87,161.41-87,23.95-27.3-13.63-56.59-49.26-53.45S2793.1,682.41,2749.34,716.93Z"/><path class="cls-1" d="M2685.74,549.71l25.18,94.61c49-8.38,129.12-52.88,144-68.27,22.37-23.17-7.71-52.18-38.37-51.67S2725.54,521.29,2685.74,549.71Z"/><path class="cls-2" d="M2162.4,178.21c0-57.93-28.12-104.81-62.88-104.81"/><path class="cls-2" d="M2162.4,178.21c-5.4,1.88,11.37,50.09,16.77,48.21"/><path class="cls-2" d="M2503,96.46c0,26.65,7.5,48.21,16.76,48.21"/><path class="cls-2" d="M2519.8,144.67c0-26.65-22.5-48.21-50.3-48.21"/><path class="cls-3" d="M2119.4,233c-3.89-17.4-2-33.55,7.59-48.07l333.88-142c20.42-.18,36.31,10.07,51,23.17L2841.21,836c5.88,20.94,1.7,41.48-13,61.61l-319.65,136c-24.44-.68-44-6.33-56.62-18.89L2122.77,240.92"/><polygon points="2229.05 490.79 2221.2 494.3 2209.76 467.4 2217.67 464.03 2229.05 490.79"/><polygon points="2197.99 417.75 2190.24 421.51 2178.13 393.03 2184.45 390.33 2197.99 417.75"/><polygon points="2178.13 393.03 2187.62 388.99 2197.72 412.72 2198.15 418.14 2178.13 393.03"/><rect class="cls-7" x="2295.99" y="201" width="364.55" height="670.64" transform="translate(-12.19 1012.82) rotate(-23.04)"/><rect class="cls-8" x="2385.19" y="483.18" width="35.64" height="35.64" transform="translate(-0.4 1000.09) rotate(-23.51)"/><rect class="cls-9" x="2326.18" y="463.13" width="35.64" height="35.64" transform="translate(2.7 974.88) rotate(-23.51)"/><rect class="cls-10" x="2342.9" y="501.58" width="35.64" height="35.64" transform="translate(-11.25 984.75) rotate(-23.51)"/><rect class="cls-11" x="2368.47" y="444.74" width="35.64" height="35.64" transform="translate(13.55 990.23) rotate(-23.51)"/><rect class="cls-12" x="2359.62" y="540.02" width="35.64" height="35.64" transform="translate(-25.19 994.61) rotate(-23.51)"/><rect class="cls-13" x="2351.74" y="406.29" width="35.64" height="35.64" transform="translate(27.5 980.37) rotate(-23.51)"/><rect class="cls-14" x="2292.73" y="386.24" width="35.64" height="35.64" transform="translate(30.6 955.16) rotate(-23.51)"/><rect class="cls-8" x="2309.45" y="424.69" width="35.64" height="35.64" transform="translate(16.65 965.02) rotate(-23.51)"/><rect class="cls-15" x="2389.23" y="389.99" width="35.64" height="35.64" transform="translate(37.11 993.96) rotate(-23.51)"/><rect class="cls-12" x="2376.34" y="578.47" width="35.64" height="35.64" transform="translate(-39.14 1004.47) rotate(-23.51)"/><rect class="cls-15" x="2445.35" y="411.29" width="35.64" height="35.64" transform="translate(33.27 1018.12) rotate(-23.51)"/><rect class="cls-15" x="2422.67" y="466.88" width="35.64" height="35.64" transform="translate(9.22 1013.69) rotate(-23.51)"/><rect class="cls-15" x="2462.08" y="449.74" width="35.64" height="35.64" transform="translate(19.32 1027.98) rotate(-23.51)"/><rect class="cls-15" x="2439.39" y="505.32" width="35.64" height="35.64" transform="translate(-4.73 1023.55) rotate(-23.51)"/><rect class="cls-11" x="2399.03" y="522.88" width="35.64" height="35.64" transform="translate(-15.08 1008.9) rotate(-23.51)"/><rect class="cls-14" x="2276.01" y="347.8" width="35.64" height="35.64" transform="translate(44.54 945.3) rotate(-23.51)"/><rect class="cls-8" x="2415.75" y="561.33" width="35.64" height="35.64" transform="translate(-29.03 1018.76) rotate(-23.51)"/><rect class="cls-8" x="2393.07" y="616.91" width="35.64" height="35.64" transform="translate(-53.09 1014.33) rotate(-23.51)"/><rect class="cls-15" x="2405.95" y="428.43" width="35.64" height="35.64" transform="translate(23.16 1003.82) rotate(-23.51)"/><rect class="cls-15" x="2456.12" y="543.77" width="35.64" height="35.64" transform="translate(-18.68 1033.41) rotate(-23.51)"/><rect class="cls-14" x="2385.18" y="711.78" width="35.64" height="35.64" transform="translate(-91.58 1019.06) rotate(-23.51)"/><rect class="cls-15" x="2495.52" y="526.63" width="35.64" height="35.64" transform="translate(-8.57 1047.7) rotate(-23.51)"/><rect class="cls-15" x="2533.55" y="508.94" width="35.64" height="35.64" transform="translate(1.64 1061.4) rotate(-23.51)"/><rect class="cls-8" x="2432.47" y="599.77" width="35.64" height="35.64" transform="translate(-42.98 1028.62) rotate(-23.51)"/><rect class="cls-14" x="2660.06" y="592.21" width="35.64" height="35.64" transform="translate(-21.07 1118.78) rotate(-23.51)"/><rect class="cls-14" x="2676.78" y="630.65" width="35.64" height="35.64" transform="translate(-35.02 1128.64) rotate(-23.51)"/><rect class="cls-14" x="2401.91" y="750.22" width="35.64" height="35.64" transform="translate(-105.53 1028.92) rotate(-23.51)"/><rect class="cls-14" x="2412.97" y="787.66" width="35.64" height="35.64" transform="translate(-123.81 983.11) rotate(-22.31)"/><rect class="cls-14" x="2454.67" y="770.55" width="35.64" height="35.64" transform="translate(-114.19 997.66) rotate(-22.31)"/><rect class="cls-14" x="2499.36" y="753.55" width="35.64" height="35.64" transform="translate(-98.76 1068.07) rotate(-23.51)"/><rect class="cls-14" x="2539.73" y="735.99" width="35.64" height="35.64" transform="translate(-88.41 1082.71) rotate(-23.51)"/><rect class="cls-14" x="2579.13" y="718.85" width="35.64" height="35.64" transform="translate(-78.3 1097.01) rotate(-23.51)"/><rect class="cls-14" x="2617.58" y="702.13" width="35.64" height="35.64" transform="translate(-68.44 1110.95) rotate(-23.51)"/><rect class="cls-14" x="2656.02" y="685.4" width="35.64" height="35.64" transform="translate(-58.58 1124.9) rotate(-23.51)"/><rect class="cls-14" x="2693.51" y="669.1" width="35.64" height="35.64" transform="matrix(0.92, -0.4, 0.4, 0.92, -48.97, 1138.5)"/><rect class="cls-11" x="2443.23" y="732.24" width="35.64" height="35.64" transform="translate(-94.93 1043.91) rotate(-23.51)"/><rect class="cls-11" x="2639.3" y="646.96" width="35.64" height="35.64" transform="translate(-44.63 1115.04) rotate(-23.51)"/><rect class="cls-15" x="2472.84" y="582.21" width="35.64" height="35.64" transform="translate(-32.62 1043.27) rotate(-23.51)"/><rect class="cls-15" x="2489.56" y="620.66" width="35.64" height="35.64" transform="translate(-46.57 1053.13) rotate(-23.51)"/><rect class="cls-11" x="2449.2" y="638.21" width="35.64" height="35.64" transform="translate(-56.92 1038.49) rotate(-23.51)"/><rect class="cls-13" x="2409.79" y="655.35" width="35.64" height="35.64" transform="translate(-67.03 1024.19) rotate(-23.51)"/><rect class="cls-13" x="2426.51" y="693.8" width="35.64" height="35.64" transform="translate(-80.98 1034.05) rotate(-23.51)"/><rect class="cls-13" x="2482.64" y="715.1" width="35.64" height="35.64" transform="translate(-84.82 1058.21) rotate(-23.51)"/><rect class="cls-15" x="2510.32" y="565.91" width="35.64" height="35.64" transform="translate(-23.01 1056.87) rotate(-23.51)"/><rect class="cls-15" x="2465.92" y="676.66" width="35.64" height="35.64" transform="translate(-70.87 1048.35) rotate(-23.51)"/><rect class="cls-15" x="2526.08" y="604.77" width="35.64" height="35.64" transform="translate(-37.2 1066.38) rotate(-23.51)"/><rect class="cls-15" x="2506.28" y="659.1" width="35.64" height="35.64" transform="translate(-60.52 1062.99) rotate(-23.51)"/><rect class="cls-15" x="2548.89" y="546.84" width="35.64" height="35.64" transform="translate(-12.2 1070.67) rotate(-23.51)"/><rect class="cls-15" x="2566.45" y="587.21" width="35.64" height="35.64" transform="translate(-26.85 1081.02) rotate(-23.51)"/><rect class="cls-15" x="2521.08" y="698.38" width="35.64" height="35.64" transform="translate(-74.96 1072.15) rotate(-23.51)"/><rect class="cls-15" x="2542.81" y="643.21" width="35.64" height="35.64" transform="translate(-51.15 1076.24) rotate(-23.51)"/><rect class="cls-15" x="2559.53" y="681.66" width="35.64" height="35.64" transform="translate(-65.1 1086.1) rotate(-23.51)"/><rect class="cls-13" x="2598.93" y="664.52" width="35.64" height="35.64" transform="translate(-54.99 1100.4) rotate(-23.51)"/><rect class="cls-13" x="2622.58" y="608.51" width="35.64" height="35.64" transform="translate(-30.69 1105.18) rotate(-23.51)"/><rect class="cls-15" x="2581.79" y="625.11" width="35.64" height="35.64" transform="translate(-40.69 1090.29) rotate(-23.51)"/><rect class="cls-14" x="2602.01" y="571.74" width="35.64" height="35.64" transform="translate(-17.73 1093.92) rotate(-23.51)"/><path class="cls-16" d="M2685.47,765.84c-4.75-17.49.8-31.45,21-40.39,18.19-6.84,31.92-1.93,42.18,12.12,7,18.17.83,32.52-17.34,43.36C2711,789.87,2695.54,785.26,2685.47,765.84Z"/><path class="cls-1" d="M2101.61,1006.21c-2.33-26.09-.39-136,26.21-164.56-4.48-55.43-2.79-108,8.38-156.16-18-46.19-31.73-93-34.59-141.5.11-.15.93-1.38,3.21-4.79h0c2.16-3.23,33.62-54.64,51.95-78.15a235.65,235.65,0,0,1,42.32-41.77l44,108c29.21,90,46.8,118.45,55.32,129,.77,1,7.9,9.75,17,20.85,16.35,20,24.26,28.75,27.31,33.09a282.34,282.34,0,0,1,33.48,64.39c3.13,26.82,22.12,46.76,45.06,65,15.31-9,118.43-63.54,175-60.79,31.24-4.12,58.91,4.21,81.75,29.35,14.65,49.13,26,97.22,0,133.1v25.16c.82-11.15,193-83.24,236.87-72.32,16.1,10.91,29.1,25.4,14.67,72.32-24.32,37.47-27.25,39.83-37.73,39.83Z"/><path class="cls-4" d="M2341.63,941.22a287.87,287.87,0,0,1,43-60.79c21.87-23.68,38-33.07,35.64-39.82-2.29-6.41-21.17-10-99.57,5.24"/><path class="cls-1" d="M2451.68,927.6l-77.56-55.55"/><path class="cls-4" d="M2297.61,666.62a88.84,88.84,0,0,1-38.78-4.19A90.28,90.28,0,0,1,2216.9,632"/><path class="cls-5" d="M2639.29,823.84a119.25,119.25,0,0,1,24.63,43.49,120.73,120.73,0,0,1,1.57,65.51"/><path class="cls-5" d="M2592.65,833.79a108.75,108.75,0,0,1,54.5,100.62"/><path class="cls-4" d="M2673.35,939.65c-10,11.65-37.2,39.77-74.41,39.83a74.35,74.35,0,0,1-12.58-1.05"/><path class="cls-4" d="M2304.94,679.2A51.79,51.79,0,0,1,2240,697"/><path class="cls-6" d="M2722.09,557.62a116,116,0,0,0,26.2,52.41"/><path class="cls-5" d="M2755.1,544.52a70.9,70.9,0,0,0,35.64,51.36"/><path class="cls-5" d="M2822.18,711.17c.71,6.4,3.64,24.84,18.87,39.82a63.4,63.4,0,0,0,21,13.63"/><path class="cls-5" d="M2814.84,713.26a59,59,0,0,0,12.58,35.64,57.21,57.21,0,0,0,19.92,15.72"/><path class="cls-5" d="M2813.8,936.51a102.47,102.47,0,0,0,55.55,57.64"/><path class="cls-5" d="M2800.17,940.7a95.75,95.75,0,0,0,55.55,56.6"/><path class="cls-5" d="M2110,548.19a43.68,43.68,0,0,0,23.06,8.38,44.25,44.25,0,0,0,28.3-8.38"/><path class="cls-14" d="M2703.07,746.33c3.37-5.15,24.7-1.11,33.78,2.48-6.27,10.68-20.74,23.44-25.54,23.49-2.65-2.4-2.23-10.17,1.88-14.89C2707.67,753.71,2702,750,2703.07,746.33Z"/><path d="M3861.47,708.5c-1.23-.54-3.45-4.78-4.25-5.89a25.24,25.24,0,0,1-4.08-9.45l-2.74,1.16,3.76,8.28,2.59-1.51L3851,690.34a1.5,1.5,0,0,0-2.74,1.15c3.38,11.89,9.44,21.84,16.91,31.59,1.16,1.51,3.76,0,2.59-1.52-7.31-9.53-13.29-19.21-16.61-30.86l-2.74,1.15,5.76,10.75c.93,1.73,3.38.21,2.59-1.51L3853,692.8c-.73-1.61-3.09-.42-2.74,1.16a27.92,27.92,0,0,0,4.85,10.78c1.48,2,2.52,5.33,4.85,6.35,1.76.76,3.28-1.82,1.52-2.59Z"/><path d="M3857.85,708.91a5.69,5.69,0,0,0,1.69,4.33c1.37,1.36,3.5-.76,2.12-2.12a2.73,2.73,0,0,1-.81-2.21,1.51,1.51,0,0,0-1.5-1.5,1.53,1.53,0,0,0-1.5,1.5Z"/><path d="M3852.51,690.16c-3.9-8.95-9.48-16.63-12-26.15l-2.75,1.15c1.35,2.76,2.8,5.49,4,8.32,1,2.3,1.34,4.72,2.21,7,1.78,4.77,4.74,8.72,6,13.79l2.51-1.46c-2.44-2.07-4.05-6.71-5.49-9.58a112.6,112.6,0,0,1-5-12.14l-2.74,1.16c2.12,2.76,1.88,6.56,3.36,9.69,1.74,3.71,4,7.2,6.08,10.75a1.5,1.5,0,0,0,2.59-1.51c-2-3.52-4.42-7-6.08-10.75-1.44-3.22-1.17-6.85-3.36-9.7-.93-1.21-3.38-.6-2.74,1.16a116.87,116.87,0,0,0,5.3,12.85c1.61,3.21,3.2,7.86,6,10.19a1.52,1.52,0,0,0,2.51-1.46c-1.35-5.53-4.76-9.84-6.42-15.15a102.6,102.6,0,0,0-6-14.72c-.77-1.56-3.17-.45-2.75,1.16,2.59,9.81,8.27,17.64,12.29,26.87.77,1.76,3.36.24,2.59-1.52Z"/><path d="M3847.81,679.59c-10.44-27.16-20.92-54.32-32.54-81-.67-1.56-3.27-.45-2.74,1.15q16.56,50.13,37.33,98.71c.75,1.77,3.34.24,2.59-1.52q-20.6-48.18-37-98l-2.75,1.15c11.52,26.45,21.89,53.37,32.24,80.29.68,1.78,3.58,1,2.89-.8Z"/><path d="M3815.91,600.46l-.53-2.48a1.51,1.51,0,0,0-2.89,0l1.15-1.91-1-2.53-1.69-4.21-3.4-8.43-2.74,1.15c7.37,14.78,12.07,30.85,17.5,46.41.63,1.81,3.53,1,2.89-.8-5.51-15.81-10.31-32.1-17.8-47.12-.74-1.5-3.38-.43-2.74,1.16l4.41,10.95c1,2.44,1.69,5.2,3.32,7.28a1.46,1.46,0,0,0,1.46.39l.43-.11a1.47,1.47,0,0,0,1-1.05l.07-.38h-2.89l.53,2.48c.4,1.89,3.29,1.09,2.89-.8Z"/><path class="cls-1" d="M4246.45,772.66l32,86.22c47.75-11.29,123.41-58.41,136.89-73.78,20.32-23.16-11.55-48-41.78-45.33S4283.56,743.38,4246.45,772.66Z"/><path class="cls-1" d="M4192.51,630.83l21.35,80.24c41.59-7.11,109.51-44.85,122.1-57.89,19-19.66-6.54-44.27-32.55-43.83S4226.26,606.73,4192.51,630.83Z"/><path class="cls-2" d="M3748.65,315.75c-4.59,1.59,9.64,42.48,14.22,40.89"/><path class="cls-2" d="M4037.55,246.41c0,22.6,6.36,40.89,14.22,40.89"/><path class="cls-2" d="M4051.77,287.3c0-22.6-19.08-40.89-42.67-40.89"/><path class="cls-3" d="M3714.33,362.22c-3.3-14.76-1.66-28.46,6.43-40.77L4003.94,201c17.32-.15,30.8,8.54,43.22,19.65l279.35,653c5,17.76,1.45,35.18-11.06,52.25l-271.1,115.32c-20.73-.58-37.29-5.37-48-16L3717.18,368.93"/><polygon points="3805.17 580.86 3798.52 583.84 3788.81 561.02 3795.52 558.17 3805.17 580.86"/><polygon points="3778.83 518.91 3772.26 522.1 3761.98 497.94 3767.35 495.66 3778.83 518.91"/><polygon points="3761.98 497.94 3770.04 494.52 3778.6 514.65 3778.97 519.25 3761.98 497.94"/><path class="cls-1" d="M3697.09,1018c-2-22.13-.33-115.34,22.22-139.56-3.79-47-2.36-91.61,7.12-132.45-15.25-39.17-26.91-78.89-29.34-120l2.72-4.06h0c1.83-2.74,28.51-46.34,44.06-66.28a200.14,200.14,0,0,1,35.89-35.43l37.34,91.56c24.77,76.3,39.69,100.47,46.92,109.43.65.81,6.7,8.27,14.41,17.69,13.87,16.92,20.58,24.37,23.16,28.06a239,239,0,0,1,28.4,54.61c2.66,22.75,18.76,39.66,38.22,55.11,13-7.66,100.45-53.89,148.45-51.56,26.5-3.49,50,3.58,69.34,24.89,12.42,41.68,22.1,82.46,0,112.9v21.33c.69-9.46,163.68-70.59,200.9-61.33,13.66,9.25,24.68,21.53,12.44,61.33-20.62,31.78-23.11,33.78-32,33.78Z"/><path class="cls-4" d="M3900.66,962.89a243.4,243.4,0,0,1,36.44-51.56c18.55-20.09,32.26-28.05,30.22-33.78-1.93-5.44-18-8.51-84.44,4.44"/><path class="cls-1" d="M3994,951.33l-65.78-47.11"/><path class="cls-4" d="M3863.32,730a75.35,75.35,0,0,1-32.89-3.56,76.48,76.48,0,0,1-35.56-25.78"/><path class="cls-5" d="M4153.11,863.33A101.23,101.23,0,0,1,4174,900.22a102.38,102.38,0,0,1,1.33,55.56"/><path class="cls-5" d="M4113.55,871.77a92.24,92.24,0,0,1,46.23,85.34"/><path class="cls-4" d="M4182,961.55c-8.52,9.88-31.55,33.73-63.11,33.78a62.48,62.48,0,0,1-10.67-.89"/><path class="cls-4" d="M3869.54,740.66a43.94,43.94,0,0,1-55.11,15.11"/><path class="cls-6" d="M4223.33,637.54A98.33,98.33,0,0,0,4245.56,682"/><path class="cls-5" d="M4251.34,626.43A60.1,60.1,0,0,0,4281.56,670"/><path class="cls-5" d="M4308.23,767.77c.6,5.43,3.08,21.06,16,33.78A53.53,53.53,0,0,0,4342,813.1"/><path class="cls-5" d="M4302,769.55a50,50,0,0,0,10.67,30.22,48.49,48.49,0,0,0,16.89,13.33"/><path class="cls-5" d="M4301.12,958.89a86.93,86.93,0,0,0,47.11,48.89"/><path class="cls-5" d="M4289.56,962.44a81.13,81.13,0,0,0,47.11,48"/><path class="cls-5" d="M3704.2,629.54a36.63,36.63,0,0,0,43.56,0"/><path class="cls-17" d="M4911.1,1024.81c-.26-3.13-.47-6.28-.71-9.42q-.41-2.45-.84-4.89c-2-11-5.84-23.07-7.76-35-1.3-4.11-2.62-8.21-3.83-12.31q-5.74-11.22-11.84-23.17l-50.62-48.43c-24.65-21.46-57-31.89-93.74-36l-19.88,5.28c-1.41-11.08-10.51-20.26-26.72-27.71-15.73-6-29.65-6.08-41,2.2-12.92,2.72-16.1,8.87-15,16.54-8.81-18.63-25.94-29.89-48.39-36.45-19.18-3-39,6.66-59.1,21.5l4.79,32.56c-10.6-32.32-30.51-65.84-58.64-100.43-9.06-24.59-48.54-115.12-84.21-142,10.79,30.15,12.19,52.26-8.48,55.42-6.69,6.82-19.18-5.9-35.39-31.2,11.5,31.89,14.56,56.56,33.21,91.27,34.58,94.75,55.87,154.74,40.57,142.42,19.76,35.44,19.4,54.89,5.25,63.38,0,0-7.85,74.11-1.29,73.34-.17.07,137.28,151.5,137,151.16,0,0,131.09,65.21,167.15,99.17l237.53-70.84-44.48-109C4916.32,1069.46,4911.11,1047,4911.1,1024.81Z"/><path class="cls-18" d="M4780.71,920.13C4758.12,905,4737.54,878,4717.28,849"/><path class="cls-19" d="M4669.23,912c-3.4,3.15-6,1.39-8-4.64-13.14-31.79-24.29-51.83-33.56-60.7"/><path class="cls-20" d="M4562.45,990.67a71.16,71.16,0,0,1,10.74-25.08,56.56,56.56,0,0,0-1.89,25.63c3.21-7.2,4.59-16.13,4.6-26.35-9.56-36-25.13-71.31-43.77-106.32"/><path class="cls-20" d="M4426.32,849.92q16.29-27.52,57.6-30.77"/><path class="cls-20" d="M4438.46,852.66q11.07-17.17,37.52-18.25"/><path class="cls-20" d="M4497.68,854q-18.53,26.09-60,25.89"/><path class="cls-20" d="M4480.15,850.15q-10.83,17.33-37.27,18.76"/><path class="cls-20" d="M4429.12,885.91c12.19,10.57,33.52,55.66,55.75,104.1,6.43,31.6,18.37,57.87,36.32,78.33,12,10.35,21.65,30.69,31.16,51.66"/><path class="cls-21" d="M4653.82,897.76c6.85-8.82,10.41-17.38,29.54-27.18,14-6,32.87-2.35,53.59,5.1l-2.4-9c-19.7-10.37-39.66-13.84-60-7.27l-9-8.25c-3.57,2.79-5.24,5.74-4.4,8.9-2.18-1.16-4-.58-5.42,1.44,0,0,7.16,8.73,3.36,12.64S4649,879.7,4649,879.7Z"/><path class="cls-22" d="M4428.8,948.35q-22.11-32.58-25.41-77.35c6.66-1.22,12.33,1.41,17.76,4.94l16.29,43C4441.29,930.37,4439.09,940.31,4428.8,948.35Z"/><path class="cls-22" d="M4374.26,681.51c10.23,2.17,19,.69,25.3-6.72,2.83-16.59.39-32.43-5.92-47.73l-7-15.53c-19.26-6.79-34.9-3.21-45.12,15.85Q4352.1,656,4374.26,681.51Z"/></g><g id="skærm"><g id="Layer_4" data-name="Layer 4"><rect class="cls-7" x="603.28" y="358.7" width="267.41" height="492.03" transform="translate(-180.39 345.37) rotate(-23.58)"/><polygon class="cls-23" points="698.23 584.77 673.68 596.79 662.59 569.48 687.14 557.46 698.23 584.77"/><polygon class="cls-23" points="758.77 478.33 734.21 490.34 723 463.09 747.56 451.07 758.77 478.33"/><polygon class="cls-14" points="635.49 615.39 610.94 627.4 599.89 600.22 624.33 588.25 635.49 615.39"/><polygon class="cls-24" points="653.42 568.2 628.87 580.22 617.78 552.91 642.33 540.89 653.42 568.2"/><polygon class="cls-23" points="666.51 600.23 641.95 612.25 630.91 585.06 655.35 573.09 666.51 600.23"/><polygon class="cls-24" points="685.15 552.74 660.71 564.71 649.5 537.45 674.05 525.43 685.15 552.74"/><polygon class="cls-14" points="596.19 519.18 571.64 531.2 560.6 504.01 585.15 491.99 596.19 519.18"/><polygon class="cls-14" points="609.32 551.33 584.77 563.34 573.68 536.04 598.23 524.02 609.32 551.33"/><polygon class="cls-23" points="679.64 632.38 655.09 644.39 643.99 617.09 668.43 605.12 679.64 632.38"/><polygon class="cls-24" points="622.41 583.36 597.85 595.37 586.76 568.07 611.2 556.1 622.41 583.36"/><polygon class="cls-24" points="672.07 520.71 647.58 532.56 636.42 505.42 660.97 493.4 672.07 520.71"/><polygon class="cls-14" points="627.26 504.14 602.65 516.04 591.61 488.85 616.16 476.83 627.26 504.14"/><polygon class="cls-24" points="640.34 536.17 615.79 548.18 604.7 520.88 629.25 508.86 640.34 536.17"/><polygon class="cls-24" points="687.21 474.83 662.61 486.73 651.57 459.55 676 447.58 687.21 474.83"/><polygon class="cls-25" points="700.3 506.86 675.74 518.88 664.53 491.63 689.09 479.61 700.3 506.86"/><polygon class="cls-14" points="659.05 488.51 634.5 500.53 623.29 473.27 647.84 461.26 659.05 488.51"/><polygon class="cls-23" points="692.6 664.46 668.17 676.42 656.96 649.17 681.51 637.15 692.6 664.46"/><polygon class="cls-24" points="729.83 492.47 705.22 504.37 694.18 477.18 718.74 465.16 729.83 492.47"/><polygon class="cls-25" points="742.91 524.5 718.36 536.52 707.26 509.21 731.82 497.19 742.91 524.5"/><polygon class="cls-14" points="648.5 647.58 624.07 659.55 612.86 632.29 637.41 620.28 648.5 647.58"/><polygon class="cls-25" points="726.39 571.09 701.79 582.99 690.75 555.8 715.3 543.78 726.39 571.09"/><polygon class="cls-25" points="755.99 556.53 731.44 568.55 720.35 541.24 744.9 529.22 755.99 556.53"/><polygon class="cls-25" points="739.48 603.12 714.92 615.14 703.83 587.83 728.38 575.82 739.48 603.12"/><polygon class="cls-14" points="661.59 679.61 637.15 691.58 625.94 664.32 650.5 652.31 661.59 679.61"/><polygon class="cls-24" points="709.17 617.98 684.57 629.88 673.52 602.69 698.08 590.67 709.17 617.98"/><polygon class="cls-24" points="771.73 510.4 747.3 522.37 736.09 495.12 760.64 483.1 771.73 510.4"/><polygon class="cls-24" points="716.69 460.32 692.14 472.34 681.05 445.03 705.65 433.13 716.69 460.32"/><polygon class="cls-14" points="583.11 487.15 558.55 499.17 547.46 471.86 572.02 459.84 583.11 487.15"/><polygon class="cls-14" points="589.16 482.37 576.6 458.19 603.44 446.32 616.17 470.57 589.16 482.37"/><polygon class="cls-14" points="643.77 457.55 619.22 469.56 608.13 442.26 632.68 430.24 643.77 457.55"/><polygon class="cls-14" points="674.08 442.69 649.53 454.7 638.43 427.4 663.04 415.5 674.08 442.69"/><polygon class="cls-14" points="702.33 429.53 677.64 440.91 667.02 413.4 691.71 402.02 702.33 429.53"/><polygon class="cls-14" points="731.8 415.99 707 427.42 696.38 399.92 721.18 388.49 731.8 415.99"/><polygon class="cls-14" points="674.67 711.64 650.12 723.66 639.03 696.35 663.63 684.46 674.67 711.64"/><polygon class="cls-14" points="687.8 743.79 663.25 755.81 652.16 728.5 676.71 716.49 687.8 743.79"/><polygon class="cls-25" points="769.13 588.68 744.52 600.58 733.48 573.39 757.92 561.42 769.13 588.68"/><polygon class="cls-24" points="786.29 464.78 761.69 476.68 750.64 449.49 775.08 437.52 786.29 464.78"/><polygon class="cls-23" points="722.25 650.01 697.7 662.03 686.61 634.72 711.16 622.71 722.25 650.01"/><polygon class="cls-23" points="705.69 696.49 681.25 708.45 670.04 681.2 694.64 669.3 705.69 696.49"/><polygon class="cls-25" points="713.26 538.94 688.83 550.91 677.62 523.65 702.17 511.64 713.26 538.94"/><polygon class="cls-25" points="752.56 635.15 728.01 647.17 716.91 619.86 741.47 607.85 752.56 635.15"/><polygon class="cls-14" points="700.89 775.82 676.34 787.84 665.24 760.53 689.79 748.51 700.89 775.82"/><polygon class="cls-14" points="788.92 387.88 764.24 399.26 753.62 371.76 778.3 360.38 788.92 387.88"/><polygon class="cls-25" points="782.21 620.71 757.66 632.73 746.45 605.47 771 593.45 782.21 620.71"/><polygon class="cls-24" points="810.68 605.79 786.13 617.8 775.04 590.5 799.59 578.48 810.68 605.79"/><polygon class="cls-24" points="797.95 574.58 773.35 586.48 762.3 559.29 786.86 547.28 797.95 574.58"/><polygon class="cls-24" points="784.82 542.43 760.26 554.45 749.17 527.15 773.77 515.25 784.82 542.43"/><polygon class="cls-24" points="745.63 446.18 721.08 458.19 709.99 430.89 734.47 419.04 745.63 446.18"/><polygon class="cls-24" points="773.96 433.54 749.41 445.56 738.32 418.25 762.87 406.24 773.96 433.54"/><polygon class="cls-23" points="735.34 682.04 710.78 694.06 699.69 666.75 724.24 654.73 735.34 682.04"/><polygon class="cls-23" points="815.7 450.43 791.15 462.45 780.06 435.14 804.61 423.13 815.7 450.43"/><polygon class="cls-23" points="801.41 420.16 776.61 431.59 765.99 404.08 790.79 392.66 801.41 420.16"/><polygon class="cls-14" points="760.63 402.59 735.88 414.13 725.26 386.63 750.07 375.2 760.63 402.59"/><polygon class="cls-14" points="828.79 482.46 804.23 494.48 793.19 467.29 817.63 455.32 828.79 482.46"/><polygon class="cls-14" points="841.92 514.61 817.37 526.63 806.27 499.32 830.71 487.36 841.92 514.61"/><polygon class="cls-14" points="855 546.64 830.45 558.66 819.24 531.4 843.79 519.38 855 546.64"/><polygon class="cls-14" points="867.97 578.72 843.53 590.69 832.37 563.55 856.92 551.53 867.97 578.72"/><polygon class="cls-14" points="881.1 610.87 856.55 622.89 845.46 595.58 870.01 583.56 881.1 610.87"/><polygon class="cls-14" points="894.18 642.9 869.63 654.92 858.54 627.61 883.09 615.59 894.18 642.9"/><polygon class="cls-14" points="907.27 674.93 882.71 686.95 871.62 659.64 896.22 647.74 907.27 674.93"/><polygon class="cls-14" points="920.4 707.08 895.85 719.09 884.75 691.79 909.19 679.82 920.4 707.08"/><polygon class="cls-14" points="713.97 807.85 689.42 819.87 678.33 792.56 702.81 780.71 713.97 807.85"/><polygon class="cls-14" points="722.6 839.53 697.79 850.96 687.17 823.46 711.98 812.03 722.6 839.53"/><polygon class="cls-14" points="753.91 825.08 729.11 836.51 718.49 809 743.29 797.58 753.91 825.08"/><polygon class="cls-14" points="787.6 810.33 763.16 822.3 751.96 795.04 776.56 783.14 787.6 810.33"/><polygon class="cls-14" points="817.96 795.59 793.4 807.6 782.31 780.3 806.87 768.28 817.96 795.59"/><polygon class="cls-14" points="847.56 781.02 823 793.04 811.96 765.85 836.51 753.84 847.56 781.02"/><polygon class="cls-14" points="876.43 767.05 851.83 778.95 840.78 751.76 865.34 739.74 876.43 767.05"/><polygon class="cls-14" points="905.37 752.9 880.77 764.8 869.61 737.66 894.16 725.65 905.37 752.9"/><polygon class="cls-14" points="933.48 739.11 908.93 751.12 897.84 723.82 922.27 711.85 933.48 739.11"/><polygon class="cls-24" points="744.99 792.69 720.43 804.71 709.34 777.4 733.94 765.5 744.99 792.69"/><polygon class="cls-24" points="892.24 720.75 867.68 732.77 856.59 705.47 881.08 693.62 892.24 720.75"/><polygon class="cls-25" points="765.69 667.3 741.09 679.2 730.05 652.01 754.48 640.04 765.69 667.3"/><polygon class="cls-25" points="778.78 699.33 754.22 711.35 743.13 684.04 767.57 672.07 778.78 699.33"/><polygon class="cls-24" points="748.42 714.07 723.87 726.09 712.82 698.9 737.26 686.93 748.42 714.07"/><polygon class="cls-24" points="797.77 497.62 773.22 509.64 762.17 482.45 786.61 470.48 797.77 497.62"/><polygon class="cls-24" points="813.76 528.29 789.2 540.31 777.99 513.05 802.6 501.15 813.76 528.29"/><polygon class="cls-23" points="718.82 728.63 694.27 740.65 683.17 713.34 707.73 701.33 718.82 728.63"/><polygon class="cls-24" points="731.9 760.66 707.35 772.68 696.26 745.37 720.81 733.36 731.9 760.66"/><polygon class="cls-24" points="827.07 561.2 802.63 573.16 791.47 546.02 816.03 534.01 827.07 561.2"/><polygon class="cls-24" points="774.63 778.25 750.08 790.27 738.87 763.01 763.42 750.99 774.63 778.25"/><polygon class="cls-25" points="793.81 653.5 769.25 665.52 758.16 638.21 782.72 626.2 793.81 653.5"/><polygon class="cls-25" points="761.55 746.22 737 758.24 725.91 730.93 750.34 718.96 761.55 746.22"/><polygon class="cls-25" points="806.23 685.95 781.63 697.85 770.47 670.71 795.02 658.69 806.23 685.95"/><polygon class="cls-25" points="791.86 731.36 767.31 743.38 756.1 716.12 780.65 704.1 791.86 731.36"/><polygon class="cls-25" points="822.76 637.41 798.21 649.42 787.11 622.12 811.55 610.15 822.76 637.41"/><polygon class="cls-25" points="836.42 671.14 811.99 683.11 800.78 655.85 825.33 643.83 836.42 671.14"/><polygon class="cls-25" points="803.46 764.15 778.9 776.17 767.81 748.86 792.37 736.85 803.46 764.15"/><polygon class="cls-25" points="819.2 718.03 794.76 730 783.55 702.74 808.1 690.72 819.2 718.03"/><polygon class="cls-25" points="832.28 750.06 807.73 762.08 796.63 734.77 821.19 722.75 832.28 750.06"/><polygon class="cls-24" points="837.65 595.53 813.1 607.55 802 580.24 826.56 568.23 837.65 595.53"/><polygon class="cls-24" points="861.93 735.62 837.38 747.63 826.28 720.33 850.72 708.36 861.93 735.62"/><polygon class="cls-24" points="879.15 688.73 854.6 700.74 843.51 673.44 868.06 661.42 879.15 688.73"/><polygon class="cls-24" points="849.39 624.38 824.84 636.39 813.74 609.09 838.29 597.07 849.39 624.38"/><polygon class="cls-25" points="848.5 702.76 823.94 714.78 812.85 687.47 837.4 675.45 848.5 702.76"/><polygon class="cls-23" points="863.17 658.06 838.62 670.08 827.52 642.77 852.08 630.75 863.17 658.06"/><polygon class="cls-14" points="567.1 452.46 542.46 463.95 531.84 436.45 556.64 425.02 567.1 452.46"/><polygon class="cls-14" points="600.59 438.9 575.91 450.27 565.29 422.77 590.09 411.34 600.59 438.9"/><polygon class="cls-14" points="629.29 425.83 604.49 437.25 593.87 409.75 618.67 398.32 629.29 425.83"/><polygon class="cls-14" points="659.42 411.88 634.62 423.3 624 395.8 648.8 384.37 659.42 411.88"/><polygon class="cls-14" points="689.51 397.81 664.71 409.23 654.21 381.68 678.89 370.3 689.51 397.81"/><polygon class="cls-14" points="718.09 384.79 693.41 396.16 682.79 368.66 707.59 357.23 718.09 384.79"/><polygon class="cls-14" points="748.34 371.76 723.65 383.14 713.03 355.63 737.83 344.2 748.34 371.76"/><polygon class="cls-14" points="776.11 357.83 751.43 369.2 740.81 341.7 765.49 330.32 776.11 357.83"/></g></g><g id="Layer_6" data-name="Layer 6"><g id="Layer_4-2" data-name="Layer 4"><rect class="cls-7" x="2296.97" y="188.84" width="310.15" height="570.67" transform="translate(15.09 1020.65) rotate(-23.58)"/><polygon class="cls-23" points="2407.09 451.04 2378.61 464.98 2365.75 433.3 2394.23 419.37 2407.09 451.04"/><polygon class="cls-23" points="2477.3 327.58 2448.83 341.52 2435.82 309.91 2464.3 295.97 2477.3 327.58"/><polygon class="cls-14" points="2334.32 486.55 2305.85 500.48 2293.04 468.95 2321.38 455.07 2334.32 486.55"/><polygon class="cls-24" points="2355.12 431.82 2326.65 445.75 2313.78 414.08 2342.26 400.14 2355.12 431.82"/><polygon class="cls-23" points="2370.3 468.96 2341.82 482.9 2329.01 451.37 2357.35 437.49 2370.3 468.96"/><polygon class="cls-24" points="2391.92 413.89 2363.58 427.77 2350.58 396.16 2379.05 382.22 2391.92 413.89"/><polygon class="cls-14" points="2288.74 374.96 2260.27 388.9 2247.46 357.37 2275.94 343.43 2288.74 374.96"/><polygon class="cls-14" points="2303.98 412.25 2275.5 426.19 2262.64 394.52 2291.11 380.58 2303.98 412.25"/><polygon class="cls-23" points="2385.53 506.25 2357.05 520.19 2344.19 488.52 2372.53 474.64 2385.53 506.25"/><polygon class="cls-24" points="2319.15 449.4 2290.67 463.34 2277.81 431.67 2306.15 417.78 2319.15 449.4"/><polygon class="cls-24" points="2376.74 376.74 2348.35 390.48 2335.4 359.01 2363.88 345.07 2376.74 376.74"/><polygon class="cls-14" points="2324.78 357.52 2296.24 371.32 2283.43 339.79 2311.91 325.85 2324.78 357.52"/><polygon class="cls-24" points="2339.95 394.67 2311.47 408.61 2298.61 376.94 2327.09 363 2339.95 394.67"/><polygon class="cls-24" points="2394.31 323.53 2365.78 337.33 2352.97 305.8 2381.31 291.92 2394.31 323.53"/><polygon class="cls-25" points="2409.49 360.68 2381.01 374.62 2368.01 343.01 2396.49 329.07 2409.49 360.68"/><polygon class="cls-14" points="2361.65 339.4 2333.17 353.33 2320.17 321.72 2348.65 307.78 2361.65 339.4"/><polygon class="cls-23" points="2400.57 543.46 2372.23 557.34 2359.22 525.72 2387.7 511.79 2400.57 543.46"/><polygon class="cls-24" points="2443.74 343.99 2415.2 357.79 2402.4 326.25 2430.87 312.32 2443.74 343.99"/><polygon class="cls-25" points="2458.91 381.13 2430.43 395.07 2417.57 363.4 2446.05 349.46 2458.91 381.13"/><polygon class="cls-14" points="2349.42 523.89 2321.08 537.77 2308.08 506.16 2336.55 492.22 2349.42 523.89"/><polygon class="cls-25" points="2439.76 435.17 2411.22 448.97 2398.41 417.44 2426.89 403.5 2439.76 435.17"/><polygon class="cls-25" points="2474.09 418.28 2445.61 432.22 2432.74 400.55 2461.22 386.61 2474.09 418.28"/><polygon class="cls-25" points="2454.93 472.32 2426.45 486.26 2413.59 454.59 2442.07 440.65 2454.93 472.32"/><polygon class="cls-14" points="2364.59 561.04 2336.25 574.92 2323.25 543.31 2351.73 529.37 2364.59 561.04"/><polygon class="cls-24" points="2419.78 489.56 2391.24 503.36 2378.44 471.82 2406.91 457.89 2419.78 489.56"/><polygon class="cls-24" points="2492.34 364.79 2464 378.67 2451 347.06 2479.48 333.12 2492.34 364.79"/><polygon class="cls-24" points="2428.51 306.7 2400.03 320.64 2387.16 288.97 2415.7 275.17 2428.51 306.7"/><polygon class="cls-14" points="2273.57 337.81 2245.09 351.75 2232.23 320.08 2260.71 306.14 2273.57 337.81"/><polygon class="cls-14" points="2280.59 332.27 2266.03 304.22 2297.16 290.46 2311.91 318.59 2280.59 332.27"/><polygon class="cls-14" points="2343.93 303.48 2315.45 317.42 2302.59 285.75 2331.07 271.81 2343.93 303.48"/><polygon class="cls-14" points="2379.08 286.25 2350.61 300.18 2337.74 268.51 2366.28 254.71 2379.08 286.25"/><polygon class="cls-14" points="2411.84 270.99 2383.21 284.18 2370.89 252.28 2399.52 239.09 2411.84 270.99"/><polygon class="cls-14" points="2446.03 255.29 2417.26 268.54 2404.94 236.64 2433.71 223.39 2446.03 255.29"/><polygon class="cls-14" points="2379.77 598.19 2351.29 612.13 2338.43 580.45 2366.96 566.65 2379.77 598.19"/><polygon class="cls-14" points="2395 635.47 2366.52 649.41 2353.66 617.74 2382.13 603.8 2395 635.47"/><polygon class="cls-25" points="2489.32 455.57 2460.78 469.37 2447.98 437.84 2476.32 423.96 2489.32 455.57"/><polygon class="cls-24" points="2509.23 311.87 2480.69 325.67 2467.88 294.14 2496.22 280.25 2509.23 311.87"/><polygon class="cls-23" points="2434.95 526.71 2406.48 540.64 2393.61 508.97 2422.09 495.03 2434.95 526.71"/><polygon class="cls-23" points="2415.74 580.61 2387.4 594.49 2374.4 562.87 2402.93 549.07 2415.74 580.61"/><polygon class="cls-25" points="2424.53 397.89 2396.18 411.77 2383.18 380.15 2411.66 366.22 2424.53 397.89"/><polygon class="cls-25" points="2470.11 509.47 2441.63 523.41 2428.76 491.74 2457.24 477.8 2470.11 509.47"/><polygon class="cls-14" points="2410.17 672.62 2381.7 686.56 2368.83 654.89 2397.31 640.95 2410.17 672.62"/><polygon class="cls-14" points="2512.28 222.69 2483.65 235.88 2471.33 203.98 2499.96 190.78 2512.28 222.69"/><polygon class="cls-25" points="2504.49 492.72 2476.01 506.66 2463.01 475.04 2491.49 461.11 2504.49 492.72"/><polygon class="cls-24" points="2537.52 475.41 2509.04 489.35 2496.17 457.68 2524.65 443.74 2537.52 475.41"/><polygon class="cls-24" points="2522.75 439.22 2494.21 453.02 2481.41 421.49 2509.88 407.55 2522.75 439.22"/><polygon class="cls-24" points="2507.51 401.94 2479.04 415.87 2466.17 384.2 2494.71 370.4 2507.51 401.94"/><polygon class="cls-24" points="2462.07 290.3 2433.59 304.23 2420.73 272.56 2449.13 258.82 2462.07 290.3"/><polygon class="cls-24" points="2494.93 275.64 2466.45 289.58 2453.58 257.91 2482.06 243.97 2494.93 275.64"/><polygon class="cls-23" points="2450.13 563.85 2421.65 577.79 2408.79 546.12 2437.26 532.18 2450.13 563.85"/><polygon class="cls-23" points="2543.34 295.23 2514.86 309.17 2502 277.5 2530.47 263.56 2543.34 295.23"/><polygon class="cls-23" points="2526.77 260.12 2498 273.38 2485.68 241.48 2514.45 228.22 2526.77 260.12"/><polygon class="cls-14" points="2479.47 239.74 2450.76 253.13 2438.45 221.23 2467.21 207.98 2479.47 239.74"/><polygon class="cls-14" points="2558.51 332.38 2530.04 346.32 2517.23 314.79 2545.57 300.9 2558.51 332.38"/><polygon class="cls-14" points="2573.74 369.67 2545.27 383.61 2532.4 351.93 2560.74 338.05 2573.74 369.67"/><polygon class="cls-14" points="2588.92 406.81 2560.44 420.75 2547.44 389.14 2575.92 375.2 2588.92 406.81"/><polygon class="cls-14" points="2603.96 444.02 2575.62 457.9 2562.67 426.43 2591.15 412.49 2603.96 444.02"/><polygon class="cls-14" points="2619.19 481.31 2590.71 495.25 2577.85 463.57 2606.32 449.64 2619.19 481.31"/><polygon class="cls-14" points="2634.36 518.46 2605.89 532.39 2593.02 500.72 2621.5 486.79 2634.36 518.46"/><polygon class="cls-14" points="2649.54 555.61 2621.06 569.54 2608.19 537.87 2636.73 524.07 2649.54 555.61"/><polygon class="cls-14" points="2664.77 592.89 2636.29 606.83 2623.43 575.16 2651.77 561.28 2664.77 592.89"/><polygon class="cls-14" points="2425.35 709.77 2396.87 723.71 2384.01 692.04 2412.4 678.29 2425.35 709.77"/><polygon class="cls-14" points="2435.35 746.52 2406.59 759.77 2394.27 727.87 2423.04 714.62 2435.35 746.52"/><polygon class="cls-14" points="2471.67 729.76 2442.91 743.01 2430.59 711.11 2459.36 697.86 2471.67 729.76"/><polygon class="cls-14" points="2510.74 712.64 2482.41 726.52 2469.4 694.91 2497.94 681.11 2510.74 712.64"/><polygon class="cls-14" points="2545.95 695.55 2517.48 709.48 2504.61 677.81 2533.09 663.88 2545.95 695.55"/><polygon class="cls-14" points="2580.28 678.66 2551.81 692.6 2539 661.06 2567.48 647.12 2580.28 678.66"/><polygon class="cls-14" points="2613.77 662.45 2585.24 676.25 2572.43 644.71 2600.9 630.77 2613.77 662.45"/><polygon class="cls-14" points="2647.34 646.04 2618.8 659.84 2605.86 628.37 2634.33 614.43 2647.34 646.04"/><polygon class="cls-14" points="2679.94 630.04 2651.47 643.98 2638.6 612.31 2666.94 598.43 2679.94 630.04"/><polygon class="cls-24" points="2461.32 692.19 2432.84 706.13 2419.98 674.46 2448.51 660.65 2461.32 692.19"/><polygon class="cls-24" points="2632.1 608.75 2603.63 622.69 2590.76 591.02 2619.16 577.28 2632.1 608.75"/><polygon class="cls-25" points="2485.34 546.76 2456.8 560.56 2443.99 529.02 2472.34 515.14 2485.34 546.76"/><polygon class="cls-25" points="2500.51 583.9 2472.03 597.84 2459.17 566.17 2487.51 552.29 2500.51 583.9"/><polygon class="cls-24" points="2465.3 601 2436.82 614.94 2424.02 583.41 2452.36 569.53 2465.3 601"/><polygon class="cls-24" points="2522.54 349.96 2494.06 363.9 2481.26 332.37 2509.6 318.49 2522.54 349.96"/><polygon class="cls-24" points="2541.08 385.53 2512.6 399.47 2499.6 367.86 2528.14 354.06 2541.08 385.53"/><polygon class="cls-23" points="2430.97 617.89 2402.5 631.83 2389.63 600.16 2418.11 586.22 2430.97 617.89"/><polygon class="cls-24" points="2446.15 655.04 2417.67 668.98 2404.8 637.31 2433.28 623.37 2446.15 655.04"/><polygon class="cls-24" points="2556.52 423.7 2528.18 437.58 2515.24 406.1 2543.71 392.16 2556.52 423.7"/><polygon class="cls-24" points="2495.71 675.44 2467.23 689.38 2454.23 657.76 2482.71 643.82 2495.71 675.44"/><polygon class="cls-25" points="2517.94 530.75 2489.47 544.69 2476.6 513.02 2505.08 499.08 2517.94 530.75"/><polygon class="cls-25" points="2480.53 638.29 2452.06 652.23 2439.19 620.56 2467.53 606.67 2480.53 638.29"/><polygon class="cls-25" points="2532.35 568.39 2503.82 582.19 2490.88 550.71 2519.35 536.77 2532.35 568.39"/><polygon class="cls-25" points="2515.68 621.05 2487.21 634.99 2474.21 603.38 2502.68 589.44 2515.68 621.05"/><polygon class="cls-25" points="2551.52 512.09 2523.05 526.02 2510.18 494.35 2538.52 480.47 2551.52 512.09"/><polygon class="cls-25" points="2567.37 551.21 2539.03 565.09 2526.03 533.48 2554.5 519.54 2567.37 551.21"/><polygon class="cls-25" points="2529.14 659.09 2500.66 673.03 2487.79 641.36 2516.27 627.42 2529.14 659.09"/><polygon class="cls-25" points="2547.39 605.59 2519.05 619.47 2506.05 587.86 2534.53 573.92 2547.39 605.59"/><polygon class="cls-25" points="2562.57 642.74 2534.09 656.68 2521.22 625.01 2549.7 611.07 2562.57 642.74"/><polygon class="cls-24" points="2568.79 463.52 2540.31 477.46 2527.45 445.79 2555.93 431.85 2568.79 463.52"/><polygon class="cls-24" points="2596.95 625.99 2568.47 639.93 2555.61 608.26 2583.95 594.38 2596.95 625.99"/><polygon class="cls-24" points="2616.93 571.61 2588.45 585.54 2575.59 553.87 2604.06 539.93 2616.93 571.61"/><polygon class="cls-24" points="2582.41 496.97 2553.93 510.91 2541.07 479.24 2569.54 465.3 2582.41 496.97"/><polygon class="cls-25" points="2581.37 587.88 2552.9 601.82 2540.03 570.15 2568.51 556.21 2581.37 587.88"/><polygon class="cls-23" points="2598.39 536.04 2569.91 549.98 2557.05 518.3 2585.52 504.37 2598.39 536.04"/><polygon class="cls-14" points="2255 297.58 2226.43 310.91 2214.11 279.01 2242.88 265.76 2255 297.58"/><polygon class="cls-14" points="2293.85 281.85 2265.22 295.05 2252.9 263.15 2281.67 249.89 2293.85 281.85"/><polygon class="cls-14" points="2327.14 266.69 2298.37 279.95 2286.05 248.04 2314.82 234.79 2327.14 266.69"/><polygon class="cls-14" points="2362.09 250.51 2333.32 263.76 2321 231.86 2349.77 218.61 2362.09 250.51"/><polygon class="cls-14" points="2396.98 234.19 2368.21 247.44 2356.03 215.49 2384.66 202.29 2396.98 234.19"/><polygon class="cls-14" points="2430.13 219.09 2401.5 232.29 2389.18 200.38 2417.94 187.13 2430.13 219.09"/><polygon class="cls-14" points="2465.2 203.98 2436.58 217.18 2424.26 185.28 2453.02 172.02 2465.2 203.98"/><polygon class="cls-14" points="2497.42 187.82 2468.79 201.02 2456.48 169.12 2485.11 155.92 2497.42 187.82"/></g></g><g id="Layer_4-3" data-name="Layer 4"><path class="cls-17" d="M1632.9,1045.84c-.26-3.09-.46-6.18-.7-9.27-.27-1.6-.54-3.2-.83-4.81-1.95-10.87-5.75-22.7-7.63-34.46-1.28-4-2.57-8.09-3.77-12.12l-11.65-22.79-49.78-47.64c-24.26-21.11-56.07-31.37-92.22-35.41l-19.55,5.2c-1.38-10.9-10.33-19.94-26.28-27.26-15.48-5.92-29.16-6-40.35,2.16-12.71,2.68-15.84,8.72-14.7,16.27-8.67-18.32-25.53-29.4-47.61-35.85-18.86-3-38.36,6.54-58.13,21.15l4.71,32c-10.42-31.8-30-64.77-57.68-98.79-8.92-24.19-47.75-113.24-82.84-139.66,10.62,29.66,12,51.4-8.33,54.52-6.59,6.7-18.87-5.81-34.81-30.7,11.3,31.37,14.32,55.63,32.67,89.78,34,93.2,54.94,152.21,39.9,140.09,19.44,34.86,19.08,54,5.17,62.35,0,0-7.73,72.9-1.28,72.13-.17.08,135,149,134.73,148.7,0,0,128.94,64.14,164.41,97.54L1690,1219.32l-43.76-107.24C1638,1089.75,1632.91,1067.63,1632.9,1045.84Z"/><path class="cls-18" d="M1504.63,942.86c-22.21-14.88-42.46-41.46-62.38-70"/><path class="cls-19" d="M1395,934.9c-3.34,3.11-5.93,1.38-7.87-4.56-12.93-31.27-23.9-51-33-59.7"/><path class="cls-20" d="M1289.94,1012.26a70.2,70.2,0,0,1,10.57-24.68,55.73,55.73,0,0,0-1.86,25.22c3.16-7.09,4.51-15.88,4.52-25.93-9.4-35.38-24.71-70.14-43-104.58"/><path class="cls-20" d="M1156,873.8q16-27.07,56.66-30.26"/><path class="cls-20" d="M1168,876.5q10.88-16.9,36.9-18"/><path class="cls-20" d="M1226.23,877.84q-18.21,25.65-59,25.47"/><path class="cls-20" d="M1209,874q-10.65,17-36.66,18.45"/><path class="cls-20" d="M1158.8,909.21c12,10.39,33,54.74,54.84,102.4,6.32,31.08,18.07,56.91,35.72,77,11.8,10.18,21.29,30.19,30.65,50.82"/><path class="cls-26" d="M1379.83,920.86c6.73-8.68,10.23-17.1,29.05-26.73,13.8-5.91,32.33-2.32,52.72,5l-2.36-8.88c-19.39-10.2-39-13.62-59-7.15l-8.83-8.12c-3.51,2.75-5.15,5.65-4.33,8.76-2.14-1.14-3.9-.57-5.33,1.42,0,0,7,8.59,3.31,12.43s-10,5.5-10,5.5Z"/><path class="cls-22" d="M1158.49,970.63q-21.75-32.05-25-76.1c6.56-1.19,12.13,1.4,17.48,4.87l16,42.34C1170.77,952.94,1168.6,962.72,1158.49,970.63Z"/><path class="cls-22" d="M1104.84,708.15c10.06,2.14,18.66.67,24.88-6.61,2.79-16.32.39-31.9-5.83-46.95L1117,639.31c-19-6.68-34.33-3.16-44.39,15.59Q1083,683.07,1104.84,708.15Z"/><path class="cls-17" d="M3049.58,775.93c-.83-4.28-1.59-8.57-2.39-12.85-.62-2.2-1.26-4.41-1.9-6.6-4.39-14.9-11.51-30.86-15.95-47-2.41-5.47-4.84-10.91-7.13-16.36L3002.44,663l-76.92-59c-37.15-25.81-83.21-35.29-134.37-35.4l-26.55,10.26c-3.6-15-17.51-26.29-40.93-34.09-22.55-5.91-41.7-3.91-56.09,9.2-17.36,5.69-20.82,14.62-18.07,25-14.93-24.29-40.2-37.2-72.06-42.84-26.83-1.28-52.65,15-78.06,38.47l11.5,44.07c-19.45-42.86-51.89-86-95.79-129.31-16.17-32.46-84.12-151-137.23-182.61,19.39,39.85,24.65,70-3.3,77.51-8.19,10.39-27.27-5.23-53.38-37.59,20.61,42.14,28.55,75.6,59.43,120.55,61.83,125.12,100.15,204.43,77.26,189.79,32.51,45.77,34.94,72.57,16.77,86.39,0,0,.35,103.12,9.27,101.06-.23.14,211.66,187.72,211.17,187.31,0,0,190.13,70,244.85,111.22L3156,1009.78l-77.61-143.27C3063.48,836.55,3052.93,806.4,3049.58,775.93Z"/><path class="cls-18" d="M2856.52,674.07c-31.25-20.93-59.74-58.32-87.77-98.42"/><path class="cls-19" d="M2702.26,662.88c-4.7,4.36-8.34,1.93-11.08-6.42-18.18-44-33.62-71.72-46.43-84"/><path class="cls-20" d="M2554.5,771.69A98.69,98.69,0,0,1,2569.36,737q-5.45,18.56-2.61,35.47c4.45-10,6.35-22.33,6.36-36.47-13.22-49.77-34.76-98.67-60.56-147.12"/><path class="cls-20" d="M2366.13,576.92q22.54-38.08,79.71-42.57"/><path class="cls-20" d="M2382.94,580.72q15.32-23.78,51.92-25.26"/><path class="cls-20" d="M2464.87,582.6q-25.62,36.09-83,35.83"/><path class="cls-20" d="M2440.62,577.24q-15,24-51.57,26"/><path class="cls-20" d="M2370,626.73c16.86,14.63,46.39,77,77.15,144,8.89,43.72,25.42,80.07,50.25,108.39,16.59,14.31,30,42.46,43.12,71.48"/><path class="cls-27" d="M2680.94,643.12c9.48-12.2,14.4-24,40.87-37.61,19.41-8.31,45.48-3.25,74.17,7.06l-3.33-12.5c-27.26-14.35-54.88-19.15-83-10.06l-12.41-11.42c-4.94,3.87-7.24,7.95-6.09,12.33-3-1.61-5.48-.8-7.5,2,0,0,9.91,12.08,4.65,17.49s-14,7.74-14,7.74Z"/><path class="cls-22" d="M2380.05,760.3q-30.59-45.09-35.17-107c9.22-1.68,17.06,2,24.58,6.85L2392,719.66C2397.33,735.41,2394.29,749.17,2380.05,760.3Z"/><path class="cls-22" d="M2256.74,383.92c14.16,3,26.25.94,35-9.3,3.92-23,.54-44.88-8.2-66.05l-9.73-21.5c-26.65-9.39-48.29-4.44-62.44,21.94Q2226.08,348.64,2256.74,383.92Z"/></g></svg>
